<svg width="108" height="75" viewBox="0 0 108 75" fill="none" xmlns="http://www.w3.org/2000/svg">
<path opacity="0.3" d="M112.283 4.22625C112.283 1.8947 114.141 -2.73495e-06 116.425 -2.63512e-06C118.709 -2.53528e-06 120.57 1.89606 120.57 4.22625C120.57 6.5578 118.709 8.45516 116.425 8.45516C114.141 8.45516 112.283 6.5578 112.283 4.22625ZM116.425 41.7122C118.709 41.7122 120.57 39.8134 120.57 37.4832C120.57 35.153 118.709 33.257 116.425 33.257C114.141 33.257 112.283 35.153 112.283 37.4832C112.283 39.8134 114.141 41.7122 116.425 41.7122ZM135.141 41.7122C137.425 41.7122 139.284 39.8134 139.284 37.4832C139.284 35.153 137.425 33.257 135.141 33.257C132.853 33.257 130.995 35.153 130.995 37.4832C130.995 39.8134 132.853 41.7122 135.141 41.7122ZM116.425 25.0823C118.709 25.0823 120.57 23.1849 120.57 20.8547C120.57 18.5245 118.709 16.6285 116.425 16.6285C114.141 16.6285 112.283 18.5245 112.283 20.8547C112.283 23.1849 114.141 25.0823 116.425 25.0823ZM135.141 74.9677C137.425 74.9677 139.284 73.0704 139.284 70.7416C139.284 68.41 137.425 66.514 135.141 66.514C132.853 66.514 130.995 68.4114 130.995 70.7416C130.995 73.0718 132.853 74.9677 135.141 74.9677ZM135.141 58.3406C137.425 58.3406 139.284 56.4433 139.284 54.1144C139.284 51.7829 137.425 49.8855 135.141 49.8855C132.853 49.8855 130.995 51.7829 130.995 54.1144C130.995 56.4433 132.853 58.3406 135.141 58.3406ZM116.425 58.3406C118.709 58.3406 120.57 56.4433 120.57 54.1144C120.57 51.7829 118.709 49.8854 116.425 49.8854C114.141 49.8854 112.283 51.7829 112.283 54.1144C112.283 56.4433 114.141 58.3406 116.425 58.3406ZM97.7103 25.0823C99.997 25.0823 101.855 23.1849 101.855 20.8547C101.855 18.5245 99.997 16.6285 97.7103 16.6285C95.4277 16.6285 93.5692 18.5245 93.5692 20.8547C93.5679 23.1849 95.4277 25.0823 97.7103 25.0823ZM97.7103 41.7122C99.997 41.7122 101.855 39.8134 101.855 37.4832C101.855 35.153 99.997 33.257 97.7103 33.257C95.4277 33.257 93.5692 35.153 93.5692 37.4832C93.5692 39.8134 95.4277 41.7122 97.7103 41.7122ZM135.141 25.0823C137.425 25.0823 139.284 23.1849 139.284 20.8547C139.284 18.5245 137.425 16.6285 135.141 16.6285C132.853 16.6285 130.995 18.5245 130.995 20.8547C130.995 23.1849 132.853 25.0823 135.141 25.0823ZM116.425 74.9677C118.709 74.9677 120.57 73.0704 120.57 70.7416C120.57 68.41 118.709 66.514 116.425 66.514C114.141 66.514 112.283 68.4114 112.283 70.7416C112.283 73.0718 114.141 74.9677 116.425 74.9677ZM97.7103 8.45516C99.997 8.45516 101.855 6.55644 101.855 4.22625C101.855 1.8947 99.997 -3.35322e-06 97.7103 -3.45317e-06C95.4277 -3.55295e-06 93.5692 1.89606 93.5692 4.22625C93.5679 6.5578 95.4277 8.45516 97.7103 8.45516ZM172.566 41.7122C174.85 41.7122 176.71 39.8134 176.71 37.4832C176.71 35.153 174.85 33.257 172.566 33.257C170.281 33.257 168.422 35.153 168.422 37.4832C168.422 39.8134 170.281 41.7122 172.566 41.7122ZM135.141 8.45516C137.425 8.45516 139.284 6.55644 139.284 4.22625C139.284 1.8947 137.425 -1.71717e-06 135.141 -1.81701e-06C132.853 -1.91702e-06 130.995 1.89606 130.995 4.22625C130.995 6.5578 132.853 8.45516 135.141 8.45516ZM172.566 58.3406C174.85 58.3406 176.71 56.4433 176.71 54.1144C176.71 51.7829 174.85 49.8855 172.566 49.8855C170.281 49.8855 168.422 51.7829 168.422 54.1144C168.422 56.4433 170.281 58.3406 172.566 58.3406ZM172.566 25.0823C174.85 25.0823 176.71 23.1849 176.71 20.8547C176.71 18.5245 174.85 16.6285 172.566 16.6285C170.281 16.6285 168.422 18.5245 168.422 20.8547C168.422 23.1849 170.281 25.0823 172.566 25.0823ZM172.566 74.9677C174.85 74.9677 176.71 73.0704 176.71 70.7416C176.71 68.41 174.85 66.514 172.566 66.514C170.281 66.514 168.422 68.4114 168.422 70.7416C168.422 73.0718 170.281 74.9677 172.566 74.9677ZM172.566 8.45516C174.85 8.45516 176.71 6.55645 176.71 4.22625C176.71 1.8947 174.85 -8.12933e-08 172.566 -1.8113e-07C170.281 -2.81025e-07 168.422 1.89606 168.422 4.22625C168.422 6.55781 170.281 8.45516 172.566 8.45516ZM4.14512 66.514C1.85713 66.514 4.2786e-05 68.4114 4.26842e-05 70.7416C4.25823e-05 73.0718 1.85846 74.9677 4.14512 74.9677C6.42779 74.9677 8.28882 73.0704 8.28882 70.7416C8.28882 68.41 6.42779 66.514 4.14512 66.514ZM97.7103 58.3406C99.997 58.3406 101.855 56.4433 101.855 54.1144C101.855 51.7829 99.997 49.8854 97.7103 49.8854C95.4277 49.8854 93.5692 51.7829 93.5692 54.1144C93.5679 56.4433 95.4277 58.3406 97.7103 58.3406ZM153.852 8.45516C156.138 8.45516 157.997 6.55644 157.997 4.22625C157.997 1.8947 156.138 -8.9923e-07 153.852 -9.99125e-07C151.57 -1.0989e-06 149.709 1.89606 149.709 4.22625C149.709 6.55781 151.568 8.45516 153.852 8.45516ZM153.852 58.3406C156.138 58.3406 157.997 56.4433 157.997 54.1144C157.997 51.7829 156.138 49.8855 153.852 49.8855C151.57 49.8855 149.709 51.7829 149.709 54.1144C149.709 56.4433 151.568 58.3406 153.852 58.3406ZM153.852 74.9677C156.138 74.9677 157.997 73.0704 157.997 70.7416C157.997 68.41 156.138 66.514 153.852 66.514C151.57 66.514 149.709 68.4114 149.709 70.7416C149.709 73.0718 151.568 74.9677 153.852 74.9677ZM153.852 41.7122C156.138 41.7122 157.997 39.8134 157.997 37.4832C157.997 35.153 156.138 33.257 153.852 33.257C151.57 33.257 149.709 35.153 149.709 37.4832C149.709 39.8134 151.568 41.7122 153.852 41.7122ZM153.852 25.0823C156.138 25.0823 157.997 23.1849 157.997 20.8547C157.997 18.5245 156.138 16.6285 153.852 16.6285C151.57 16.6285 149.709 18.5245 149.709 20.8547C149.709 23.1849 151.568 25.0823 153.852 25.0823ZM4.14513 8.45516C6.4278 8.45516 8.28882 6.55644 8.28882 4.22625C8.28882 1.89469 6.4278 -7.44326e-06 4.14513 -7.54304e-06C1.85713 -7.64305e-06 4.56935e-05 1.89605 4.55916e-05 4.22625C4.54897e-05 6.5578 1.85713 8.45516 4.14513 8.45516ZM22.856 8.45516C25.1413 8.45516 27.0011 6.55644 27.0011 4.22625C27.0011 1.89469 25.14 -6.62532e-06 22.856 -6.72516e-06C20.572 -6.825e-06 18.7136 1.89605 18.7136 4.22625C18.7136 6.5578 20.572 8.45516 22.856 8.45516ZM41.5709 74.9677C43.8562 74.9677 45.716 73.0704 45.716 70.7416C45.716 68.41 43.8562 66.514 41.5709 66.514C39.2856 66.514 37.4285 68.4114 37.4285 70.7416C37.4272 73.0718 39.2856 74.9677 41.5709 74.9677ZM22.856 25.0823C25.1413 25.0823 27.0011 23.1849 27.0011 20.8547C27.0011 18.5245 25.14 16.6285 22.856 16.6285C20.572 16.6285 18.7136 18.5245 18.7136 20.8547C18.7136 23.1849 20.572 25.0823 22.856 25.0823ZM41.5709 25.0823C43.8562 25.0823 45.716 23.1849 45.716 20.8547C45.716 18.5245 43.8562 16.6285 41.5709 16.6285C39.2856 16.6285 37.4285 18.5245 37.4285 20.8547C37.4272 23.1849 39.2856 25.0823 41.5709 25.0823ZM97.7103 74.9677C99.997 74.9677 101.855 73.0704 101.855 70.7416C101.855 68.41 99.997 66.514 97.7103 66.514C95.4277 66.514 93.5692 68.4114 93.5692 70.7416C93.5679 73.0718 95.4277 74.9677 97.7103 74.9677ZM22.856 41.7122C25.1413 41.7122 27.0011 39.8134 27.0011 37.4832C27.0011 35.153 25.14 33.257 22.856 33.257C20.572 33.257 18.7136 35.153 18.7136 37.4832C18.7136 39.8134 20.572 41.7122 22.856 41.7122ZM41.5709 41.7122C43.8562 41.7122 45.716 39.8134 45.716 37.4832C45.716 35.153 43.8562 33.257 41.5709 33.257C39.2856 33.257 37.4285 35.153 37.4285 37.4832C37.4285 39.8134 39.2856 41.7122 41.5709 41.7122ZM4.14512 58.3406C6.42779 58.3406 8.28882 56.4433 8.28882 54.1144C8.28882 51.7829 6.42779 49.8854 4.14512 49.8854C1.85713 49.8854 4.35129e-05 51.7829 4.34109e-05 54.1144C4.33092e-05 56.4433 1.85713 58.3406 4.14512 58.3406ZM4.14512 41.7122C6.42779 41.7122 8.28882 39.8134 8.28882 37.4832C8.28882 35.153 6.42779 33.257 4.14512 33.257C1.85713 33.257 4.42398e-05 35.153 4.41379e-05 37.4832C4.40361e-05 39.8134 1.85713 41.7122 4.14512 41.7122ZM22.856 74.9677C25.1413 74.9677 27.0011 73.0704 27.0011 70.7416C27.0011 68.41 25.14 66.514 22.856 66.514C20.572 66.514 18.7136 68.4114 18.7136 70.7416C18.7136 73.0718 20.572 74.9677 22.856 74.9677ZM4.14513 25.0823C6.42779 25.0823 8.28882 23.1849 8.28882 20.8547C8.28882 18.5245 6.42779 16.6285 4.14513 16.6285C1.85713 16.6285 4.49666e-05 18.5245 4.48648e-05 20.8547C4.47629e-05 23.1849 1.85713 25.0823 4.14513 25.0823ZM22.856 58.3406C25.1413 58.3406 27.0011 56.4433 27.0011 54.1144C27.0011 51.7829 25.14 49.8854 22.856 49.8854C20.572 49.8854 18.7136 51.7829 18.7136 54.1144C18.7136 56.4433 20.572 58.3406 22.856 58.3406ZM41.5709 58.3406C43.8562 58.3406 45.716 56.4433 45.716 54.1144C45.716 51.7829 43.8562 49.8854 41.5709 49.8854C39.2856 49.8854 37.4285 51.7829 37.4285 54.1144C37.4272 56.4433 39.2856 58.3406 41.5709 58.3406ZM78.9981 74.9677C81.2821 74.9677 83.1405 73.0704 83.1405 70.7416C83.1405 68.41 81.2808 66.514 78.9981 66.514C76.7128 66.514 74.8557 68.4114 74.8557 70.7416C74.8557 73.0718 76.7141 74.9677 78.9981 74.9677ZM78.9981 58.3406C81.2821 58.3406 83.1405 56.4433 83.1405 54.1144C83.1405 51.7829 81.2808 49.8854 78.9981 49.8854C76.7128 49.8854 74.8557 51.7829 74.8557 54.1144C74.8557 56.4433 76.7141 58.3406 78.9981 58.3406ZM78.9981 41.7122C81.2821 41.7122 83.1405 39.8134 83.1405 37.4832C83.1405 35.153 81.2808 33.257 78.9981 33.257C76.7128 33.257 74.8557 35.153 74.8557 37.4832C74.8557 39.8134 76.7141 41.7122 78.9981 41.7122ZM41.5709 8.45516C43.8562 8.45516 45.716 6.55644 45.716 4.22625C45.716 1.89469 43.8562 -5.80721e-06 41.5709 -5.9071e-06C39.2856 -6.007e-06 37.4285 1.89605 37.4285 4.22625C37.4272 6.5578 39.2856 8.45516 41.5709 8.45516ZM78.9981 25.0823C81.2821 25.0823 83.1405 23.1849 83.1405 20.8547C83.1405 18.5245 81.2808 16.6285 78.9981 16.6285C76.7128 16.6285 74.8557 18.5245 74.8557 20.8547C74.8557 23.1849 76.7141 25.0823 78.9981 25.0823ZM78.9981 8.45516C81.2821 8.45516 83.1405 6.55644 83.1405 4.22625C83.1405 1.8947 81.2808 -4.17133e-06 78.9981 -4.27111e-06C76.7128 -4.37101e-06 74.8557 1.89606 74.8557 4.22625C74.8557 6.5578 76.7141 8.45516 78.9981 8.45516ZM60.2845 58.3406C62.5699 58.3406 64.4282 56.4433 64.4282 54.1144C64.4282 51.7829 62.5699 49.8854 60.2845 49.8854C57.9992 49.8854 56.1421 51.7829 56.1421 54.1144C56.1421 56.4433 57.9992 58.3406 60.2845 58.3406ZM60.2845 74.9677C62.5699 74.9677 64.4282 73.0704 64.4282 70.7416C64.4282 68.41 62.5699 66.514 60.2845 66.514C57.9992 66.514 56.1421 68.4114 56.1421 70.7416C56.1421 73.0718 57.9992 74.9677 60.2845 74.9677ZM60.2845 25.0823C62.5699 25.0823 64.4282 23.1849 64.4282 20.8547C64.4282 18.5245 62.5699 16.6285 60.2845 16.6285C57.9992 16.6285 56.1421 18.5245 56.1421 20.8547C56.1421 23.1849 57.9992 25.0823 60.2845 25.0823ZM60.2845 8.45516C62.5699 8.45516 64.4282 6.55644 64.4282 4.22625C64.4282 1.89469 62.5699 -4.98921e-06 60.2845 -5.08911e-06C57.9992 -5.189e-06 56.1421 1.89605 56.1421 4.22625C56.1421 6.5578 57.9992 8.45516 60.2845 8.45516ZM60.2845 41.7122C62.5699 41.7122 64.4282 39.8134 64.4282 37.4832C64.4282 35.153 62.5699 33.257 60.2845 33.257C57.9992 33.257 56.1421 35.153 56.1421 37.4832C56.1421 39.8134 57.9992 41.7122 60.2845 41.7122Z" fill="url(#paint0_linear_6092_7310)"/>
<defs>
<linearGradient id="paint0_linear_6092_7310" x1="187.269" y1="37.4839" x2="4.54443e-05" y2="37.4839" gradientUnits="userSpaceOnUse">
<stop stop-color="#2D2E83"/>
<stop offset="0.9892" stop-color="#00A13A"/>
</linearGradient>
</defs>
</svg>
