<svg width="80" height="165" viewBox="0 0 80 165" fill="none" xmlns="http://www.w3.org/2000/svg">
<path opacity="0.3" d="M-1.56442 49.5789C-3.34033 48.5535 -3.96622 46.3048 -2.96181 44.5651C-1.9574 42.8254 0.305229 42.2416 2.0801 43.2664C3.85601 44.2917 4.48277 46.5436 3.47836 48.2833C2.47396 50.023 0.211488 50.6042 -1.56442 49.5789ZM28.8097 62.9084C29.8141 61.1687 29.1863 58.9161 27.4114 57.8914C25.6365 56.8667 23.374 57.4505 22.3695 59.1901C21.3651 60.9298 21.992 63.1792 23.7669 64.2039C25.5417 65.2286 27.8053 64.6481 28.8097 62.9084ZM37.0403 48.6525C38.0447 46.9128 37.4157 44.6623 35.6408 43.6376C33.866 42.6128 31.6046 43.1946 30.6002 44.9343C29.594 46.677 30.2209 48.9263 31.9958 49.951C33.7706 50.9757 36.0342 50.3953 37.0403 48.6525ZM16.143 55.5952C17.1474 53.8555 16.5206 51.6036 14.7457 50.5789C12.9709 49.5542 10.7083 50.1379 9.7039 51.8776C8.69949 53.6173 9.32635 55.8667 11.1012 56.8914C12.8761 57.9161 15.1386 57.3349 16.143 55.5952ZM62.3706 63.277C63.375 61.5373 62.7471 59.2874 60.9733 58.2632C59.1974 57.2379 56.9359 57.8197 55.9315 59.5594C54.9253 61.3021 55.5533 63.552 57.3282 64.5767C59.1031 65.6014 61.3644 65.0197 62.3706 63.277ZM49.706 55.965C50.7104 54.2254 50.0825 51.9754 48.3086 50.9513C46.5327 49.926 44.2702 50.5071 43.2658 52.2468C42.2596 53.9895 42.8877 56.2395 44.6636 57.2648C46.4374 58.2889 48.6998 57.7078 49.706 55.965ZM41.4754 70.2209C42.4798 68.4812 41.853 66.2293 40.0792 65.2051C38.3033 64.1798 36.0396 64.763 35.0352 66.5027C34.0308 68.2423 34.6588 70.4923 36.4347 71.5176C38.2085 72.5418 40.471 71.9606 41.4754 70.2209ZM7.91294 69.8501C8.91852 68.1084 8.29056 65.8585 6.51568 64.8338C4.74081 63.809 2.47942 64.3908 1.47384 66.1325C0.470018 67.8712 1.0969 70.1205 2.87177 71.1452C4.64606 72.1709 6.90911 71.5888 7.91294 69.8501ZM20.5797 77.1633C21.5852 75.4215 20.9562 73.171 19.1813 72.1463C17.4065 71.1216 15.1451 71.7033 14.1395 73.445C13.1357 75.1837 13.7625 77.433 15.5374 78.4577C17.3123 79.4824 19.5758 78.9019 20.5797 77.1633ZM24.3736 41.3394C25.378 39.5997 24.7501 37.3498 22.9752 36.325C21.2003 35.3003 18.9389 35.8821 17.9345 37.6218C16.9283 39.3645 17.5552 41.6138 19.3301 42.6385C21.105 43.6632 23.3674 43.0821 24.3736 41.3394ZM54.14 77.5328C55.1444 75.7931 54.5177 73.5412 52.7438 72.5171C50.9679 71.4918 48.7053 72.0755 47.7009 73.8152C46.6965 75.5549 47.3244 77.8049 49.0993 78.8296C50.8742 79.8543 53.1356 79.2725 54.14 77.5328ZM-4.7517 62.5382C-3.74611 60.7965 -4.37509 58.546 -6.14996 57.5212C-7.92587 56.4959 -10.1863 57.0782 -11.1919 58.82C-12.1957 60.5586 -11.5687 62.808 -9.79387 63.8327C-8.01855 64.859 -5.75552 64.2769 -4.7517 62.5382ZM53.4981 20.1469C54.5025 18.4072 53.8741 16.1556 52.0992 15.1309C50.3243 14.1061 48.0623 14.6889 47.0579 16.4286C46.0529 18.1693 46.6798 20.4186 48.4547 21.4433C50.2296 22.4681 52.4931 21.8876 53.4981 20.1469ZM11.709 34.0275C12.7134 32.2878 12.0844 30.0373 10.3096 29.0125C8.53364 27.9872 6.27322 28.5695 5.26881 30.3092C4.26264 32.052 4.8896 34.3013 6.66448 35.326C8.44038 36.3513 10.7028 35.7702 11.709 34.0275ZM66.1637 27.4594C67.1681 25.7197 66.5408 23.4687 64.767 22.4446C62.9911 21.4193 60.728 22.0014 59.7236 23.7411C58.7186 25.4818 59.3466 27.7318 61.1225 28.7571C62.8963 29.7812 65.1587 29.2001 66.1637 27.4594ZM40.8314 12.8337C41.8358 11.094 41.2084 8.84308 39.4335 7.81835C37.6587 6.79363 35.3967 7.37642 34.3923 9.11611C33.3873 10.8568 34.0142 13.1061 35.789 14.1308C37.5639 15.1555 39.8264 14.5744 40.8314 12.8337ZM78.8284 34.7713C79.8328 33.0316 79.2055 30.7807 77.4316 29.7566C75.6557 28.7312 73.3937 29.314 72.3893 31.0537C71.3843 32.7944 72.0122 35.0443 73.7871 36.069C75.562 37.0937 77.8234 36.512 78.8284 34.7713ZM28.1667 5.52179C29.1711 3.78211 28.5428 1.53056 26.7679 0.505841C24.992 -0.519481 22.731 0.0638711 21.7266 1.80356C20.7216 3.54426 21.3485 5.79359 23.1234 6.81831C24.8993 7.84363 27.1617 7.2625 28.1667 5.52179ZM-1.67531 159.337C-2.68148 161.08 -2.05293 163.329 -0.278058 164.354C1.49681 165.378 3.75821 164.797 4.76379 163.055C5.76761 161.316 5.14084 159.064 3.36701 158.04C1.5911 157.015 -0.671484 157.599 -1.67531 159.337ZM33.2453 84.4758C34.2509 82.734 33.623 80.4842 31.8491 79.46C30.0732 78.4347 27.8107 79.0158 26.8051 80.7575C25.8013 82.4962 26.4293 84.7462 28.2052 85.7715C29.9785 86.7966 32.2415 86.2144 33.2453 84.4758ZM19.9373 19.7756C20.9423 18.0349 20.3139 15.7834 18.539 14.7587C16.7631 13.7334 14.5021 14.3167 13.4971 16.0574C12.4933 17.7961 13.1191 20.0474 14.8939 21.0722C16.6698 22.0975 18.9329 21.5153 19.9373 19.7756ZM57.9343 41.7132C58.9393 39.9725 58.3119 37.7216 56.5381 36.6975C54.7622 35.6721 52.4991 36.2543 51.4941 37.995C50.4903 39.7336 51.1171 41.9856 52.893 43.011C54.6668 44.0351 56.9299 43.4529 57.9343 41.7132ZM70.5989 49.0251C71.6039 47.2844 70.9766 45.0335 69.2027 44.0094C67.4268 42.9841 65.1648 43.5668 64.1598 45.3075C63.156 47.0462 63.7828 49.2982 65.5576 50.3229C67.3325 51.3476 69.5945 50.7648 70.5989 49.0251ZM45.2686 34.4007C46.2736 32.66 45.6452 30.4084 43.8703 29.3837C42.0954 28.359 39.8335 28.9417 38.8285 30.6824C37.8246 32.4211 38.4503 34.6725 40.2252 35.6972C42.0001 36.7219 44.2642 36.1404 45.2686 34.4007ZM32.6019 27.0875C33.6069 25.3468 32.9795 23.0959 31.2047 22.0712C29.4298 21.0465 27.1678 21.6292 26.1628 23.3699C25.159 25.1086 25.7847 27.36 27.5596 28.3847C29.3344 29.4094 31.5975 28.8272 32.6019 27.0875ZM-45.8978 133.805C-44.894 132.067 -45.5218 129.814 -47.2967 128.79C-49.0726 127.764 -51.3342 128.348 -52.338 130.087C-53.3442 131.83 -52.7167 134.078 -50.9418 135.103C-49.1659 136.128 -46.904 135.548 -45.8978 133.805ZM-37.6696 119.554C-36.6646 117.813 -37.293 115.561 -39.0678 114.537C-40.8437 113.511 -43.1053 114.096 -44.1097 115.835C-45.1142 117.575 -44.4872 119.824 -42.7123 120.849C-40.9364 121.874 -38.674 121.293 -37.6696 119.554ZM21.2221 134.548C22.2271 132.808 21.5998 130.557 19.8259 129.533C18.05 128.507 15.788 129.09 14.783 130.831C13.778 132.571 14.4066 134.82 16.1815 135.845C17.9557 136.871 20.2171 136.289 21.2221 134.548ZM-25.0049 126.866C-23.9999 125.125 -24.6273 122.874 -26.4022 121.849C-28.1771 120.824 -30.4396 121.408 -31.444 123.148C-32.4484 124.888 -31.8216 127.137 -30.0467 128.162C-28.2718 129.186 -26.0093 128.605 -25.0049 126.866ZM-16.7749 112.611C-15.7699 110.87 -16.3973 108.619 -18.1721 107.594C-19.947 106.57 -22.209 107.152 -23.214 108.893C-24.219 110.634 -23.5915 112.882 -21.8166 113.907C-20.0423 114.932 -17.7799 114.351 -16.7749 112.611ZM45.9099 91.7877C46.9155 90.046 46.2876 87.7961 44.5138 86.772C42.7378 85.7466 40.4764 86.3284 39.4708 88.0701C38.467 89.8088 39.095 92.0587 40.8698 93.0834C42.6441 94.1091 44.9061 93.5264 45.9099 91.7877ZM-12.3382 134.179C-11.3332 132.438 -11.9617 130.186 -13.7365 129.162C-15.5114 128.137 -17.774 128.721 -18.7784 130.46C-19.7828 132.2 -19.1559 134.449 -17.381 135.474C-15.6062 136.499 -13.3426 135.918 -12.3382 134.179ZM-4.10816 119.924C-3.10316 118.183 -3.73161 115.932 -5.50649 114.907C-7.28136 113.882 -9.54333 114.465 -10.5483 116.206C-11.5533 117.946 -10.9258 120.195 -9.15097 121.219C-7.3761 122.244 -5.11316 121.665 -4.10816 119.924ZM-7.90084 155.743C-6.89702 154.004 -7.52379 151.752 -9.29763 150.728C-11.0735 149.703 -13.3372 150.286 -14.341 152.025C-15.3472 153.767 -14.7186 156.016 -12.9427 157.042C-11.1689 158.066 -8.90701 157.486 -7.90084 155.743ZM-20.5665 148.43C-19.5627 146.692 -20.1905 144.439 -21.9654 143.415C-23.7403 142.39 -26.0028 142.974 -27.0067 144.712C-28.0128 146.455 -27.3854 148.703 -25.6105 149.728C-23.8356 150.753 -21.5727 150.173 -20.5665 148.43ZM12.9921 148.803C13.9971 147.062 13.3697 144.812 11.5959 143.787C9.81997 142.762 7.55737 143.346 6.55297 145.086C5.54856 146.825 6.17652 149.075 7.9514 150.1C9.72627 151.125 11.9877 150.543 12.9921 148.803ZM-33.2332 141.117C-32.2294 139.379 -32.8562 137.127 -34.6311 136.102C-36.4059 135.077 -38.6685 135.661 -39.6723 137.4C-40.6785 139.142 -40.051 141.391 -38.2761 142.415C-36.5013 143.44 -34.2394 142.86 -33.2332 141.117ZM0.32743 141.491C1.33242 139.751 0.705083 137.5 -1.06875 136.475C-2.84466 135.45 -5.10834 136.033 -6.11274 137.773C-7.11715 139.513 -6.48915 141.763 -4.71324 142.788C-2.9394 143.812 -0.67698 143.231 0.32743 141.491ZM8.55749 127.236C9.56248 125.496 8.93514 123.245 7.16131 122.221C5.3854 121.195 3.12231 121.777 2.11731 123.518C1.11232 125.259 1.74091 127.508 3.51682 128.533C5.29007 129.558 7.55249 128.977 8.55749 127.236ZM37.6811 106.041C38.6855 104.301 38.0575 102.051 36.2837 101.027C34.5078 100.002 32.2458 100.584 31.242 102.323C30.237 104.064 30.8655 106.313 32.6404 107.337C34.4153 108.362 36.6766 107.78 37.6811 106.041ZM25.0164 98.7286C26.0208 96.9889 25.3929 94.739 23.6191 93.7149C21.8432 92.6896 19.5801 93.2717 18.5763 95.0104C17.5713 96.7511 18.1999 99 19.9758 100.025C21.7496 101.049 24.012 100.468 25.0164 98.7286ZM12.3508 91.4161C13.3552 89.6764 12.7261 87.4259 10.9513 86.4012C9.1764 85.3764 6.91443 85.9592 5.91061 87.6979C4.90561 89.4386 5.53309 91.6868 7.30797 92.7115C9.08284 93.7363 11.3464 93.1558 12.3508 91.4161ZM-29.4395 105.299C-28.4345 103.558 -29.0629 101.307 -30.8378 100.282C-32.6137 99.2565 -34.8747 99.8398 -35.8797 101.581C-36.8847 103.321 -36.2571 105.57 -34.4823 106.594C-32.7069 107.621 -30.4445 107.039 -29.4395 105.299ZM-0.315942 84.103C0.688468 82.3633 0.0604996 80.1134 -1.71437 79.0886C-3.48925 78.0639 -5.75122 78.6467 -6.75504 80.3853C-7.76003 82.126 -7.13255 84.3743 -5.35768 85.399C-3.58281 86.4238 -1.32035 85.8426 -0.315942 84.103ZM-12.9806 76.791C-11.9762 75.0513 -12.6051 72.8008 -14.38 71.7761C-16.1559 70.7508 -18.4169 71.3341 -19.4207 73.0728C-20.4257 74.8135 -19.7982 77.0618 -18.0233 78.0865C-16.2474 79.1118 -13.985 78.5307 -12.9806 76.791ZM16.787 112.982C17.792 111.242 17.164 108.992 15.3902 107.968C13.6143 106.942 11.3518 107.523 10.3468 109.264C9.34181 111.005 9.97036 113.254 11.7463 114.279C13.5201 115.303 15.782 114.723 16.787 112.982ZM29.4516 120.294C30.4566 118.554 29.8287 116.304 28.0548 115.28C26.2789 114.254 24.0175 114.836 23.0125 116.577C22.0075 118.317 22.636 120.566 24.4109 121.591C26.1858 122.616 28.4466 122.035 29.4516 120.294ZM-8.54539 98.3568C-7.5404 96.6161 -8.16838 94.3662 -9.94325 93.3415C-11.7181 92.3168 -13.9795 92.8985 -14.9845 94.6392C-15.9895 96.3799 -15.362 98.6282 -13.5872 99.6529C-11.8123 100.678 -9.55039 100.097 -8.54539 98.3568ZM-21.21 91.0449C-20.205 89.3042 -20.834 87.0537 -22.6089 86.029C-24.3848 85.0036 -26.6452 85.5859 -27.6502 87.3266C-28.6552 89.0673 -28.0277 91.3157 -26.2528 92.3404C-24.4769 93.3657 -22.215 92.7856 -21.21 91.0449ZM4.12133 105.67C5.12632 103.929 4.49726 101.679 2.72239 100.654C0.947517 99.6293 -1.31385 100.211 -2.31884 101.952C-3.32384 103.692 -2.6964 105.941 -0.921522 106.965C0.853351 107.99 3.11633 107.411 4.12133 105.67Z" fill="url(#paint0_linear_6092_7307)"/>
<defs>
<linearGradient id="paint0_linear_6092_7307" x1="56.7431" y1="7.08863" x2="-25.6099" y2="149.728" gradientUnits="userSpaceOnUse">
<stop stop-color="#2D2E83"/>
<stop offset="0.9892" stop-color="#00A13A"/>
</linearGradient>
</defs>
</svg>
