<svg width="30" height="30" viewBox="0 0 30 30" fill="none" xmlns="http://www.w3.org/2000/svg">
<g clip-path="url(#clip0_10127_28)">
<path d="M1.12067 11.2648L1.20602 11.0023L2.46138 11.418L2.7067 10.6536L2.93083 10.7272L2.6016 11.7532L1.12067 11.2648Z" fill="#2D2E83"/>
<path d="M3.08467 8.89849L3.31664 8.47637L2.61696 8.35235L2.61435 8.35765L3.08467 8.89849ZM2.31067 8.34852L2.45293 8.09106L4.10719 8.33144L3.96493 8.58978L3.53293 8.51525L3.22925 9.06699L3.51783 9.40162L3.38051 9.65142L2.31067 8.34852Z" fill="#2D2E83"/>
<path d="M4.59782 6.78992C4.77898 6.94898 4.96653 6.87564 5.10908 6.70891C5.26644 6.5248 5.23653 6.3781 5.14711 6.30004C5.05624 6.21933 4.97756 6.237 4.91834 6.26999C4.81469 6.32567 4.69973 6.41551 4.51508 6.54071C4.28544 6.69683 4.11327 6.64911 3.99076 6.54218C3.75531 6.33392 3.83369 6.01578 4.01747 5.79897C4.23173 5.55123 4.54005 5.45697 4.78653 5.67289L4.6074 5.88174C4.44744 5.75861 4.30315 5.81252 4.17918 5.95627C4.09586 6.05348 4.02618 6.20666 4.1455 6.31094C4.22708 6.38458 4.32173 6.3675 4.41782 6.30269C4.43873 6.28855 4.73311 6.08294 4.80453 6.03787C4.98511 5.92151 5.18137 5.96246 5.30389 6.06968C5.5675 6.3021 5.46937 6.6332 5.26586 6.86974C5.03302 7.1437 4.71511 7.25004 4.41869 6.99788L4.59782 6.78992Z" fill="#2D2E83"/>
<path d="M5.71875 4.15057L6.60946 3.45508L6.75259 3.64508L6.07875 4.17178L6.32872 4.49934L6.95175 4.01241L7.08849 4.1921L6.46459 4.67874L6.74243 5.04637L7.42759 4.51054L7.57246 4.70024L6.67014 5.40516L5.71875 4.15057Z" fill="#2D2E83"/>
<path d="M8.61183 3.0701L9.01509 2.87156C9.17041 2.79409 9.21773 2.67449 9.14457 2.52543C9.05748 2.34457 8.92451 2.36519 8.79735 2.42822L8.39873 2.62529L8.61183 3.0701ZM8.05499 2.5437L8.72506 2.21201C9.03251 2.06119 9.2578 2.12688 9.37451 2.36725C9.50486 2.64091 9.3507 2.80292 9.31354 2.84092L9.31586 2.84534C9.40673 2.815 9.56061 2.81795 9.6689 3.043C9.74873 3.20796 9.84483 3.34818 9.92583 3.3797L9.66222 3.51019C9.59457 3.46689 9.55857 3.38853 9.5249 3.31931C9.39773 3.05773 9.29061 2.96847 9.06415 3.08071L8.70241 3.25833L8.98373 3.84542L8.7387 3.96767L8.05499 2.5437Z" fill="#2D2E83"/>
<path d="M10.8354 1.38284L11.9224 1.10034L11.9813 1.33188L11.1576 1.54662L11.2584 1.94695L12.0205 1.74988L12.0756 1.96904L11.3138 2.1667L11.4276 2.61475L12.2649 2.39706L12.3236 2.62977L11.2218 2.9158L10.8354 1.38284Z" fill="#2D2E83"/>
<path d="M13.8388 0.830811L13.5665 0.855555L13.7041 2.43005L13.9747 2.40619L13.8388 0.830811Z" fill="#2D2E83"/>
<path d="M14.6192 12.7711V2.96802C8.05674 3.13975 2.76794 8.51749 2.56384 15.2064H12.2197L14.6192 12.7711Z" fill="#00A13A"/>
<path d="M18.7819 16.7515L16.142 19.4297V29.097C22.8037 28.9244 28.1593 23.4751 28.2176 16.7515H18.7819Z" fill="#00A13A"/>
<path d="M12.9995 27.656H12.4165L10.9785 25.2997H10.9649V27.656H10.4382V24.4516H11.0224L12.4656 26.8117H12.474V24.4516H13V27.656H12.9995ZM10.0257 27.656H7.43775V27.1994L9.27898 24.9353H7.57914V24.4513H9.98156V24.8764L8.1415 27.1711H10.026L10.0257 27.656ZM7.06992 27.656H6.71746L6.63211 27.2789C6.33627 27.6209 6.06627 27.7326 5.68101 27.7326C4.73398 27.7326 4.16901 26.9679 4.16901 26.0541C4.16901 25.1383 4.73398 24.3744 5.68101 24.3744C6.37169 24.3744 6.9503 24.7471 7.03508 25.4691H6.49508C6.44224 25.0484 6.07992 24.8319 5.68101 24.8319C5.00427 24.8319 4.72092 25.4379 4.72092 26.0541C4.72092 26.6698 5.00456 27.2751 5.68101 27.2751C6.24743 27.2834 6.55779 26.9387 6.56621 26.3955H5.72543V25.9693H7.06992V27.656ZM12.1822 16.7515H2.54785V29.1026H14.6195V19.2232L12.1822 16.7515Z" fill="#2D2E83"/>
<path d="M2.27122 13.1951L2.25264 13.371L2.06567 13.3934C2.21519 13.5595 2.25467 13.6997 2.23551 13.8915C2.18499 14.3631 1.78551 14.6055 1.34219 14.5572C0.898576 14.5083 0.558608 14.1866 0.609705 13.7139C0.645705 13.3701 0.856769 13.1006 1.21067 13.0979L1.18222 13.3657C0.97493 13.3701 0.851543 13.5403 0.83093 13.7383C0.795221 14.0759 1.07364 14.2491 1.3718 14.2803C1.66967 14.3133 1.97683 14.2043 2.01341 13.867C2.04767 13.5857 1.8967 13.4134 1.63367 13.3807L1.58983 13.7984L1.38225 13.7763L1.45367 13.1064L2.27122 13.1951Z" fill="#2D2E83"/>
<path d="M16.1318 2.96143V12.556L18.7441 15.2066H28.204V2.96143H16.1318Z" fill="#2D2E83"/>
</g>
<defs>
<clipPath id="clip0_10127_28">
<rect width="29.3226" height="29.7519" fill="white"/>
</clipPath>
</defs>
</svg>
