<svg width="13" height="13" viewBox="0 0 13 13" fill="none" xmlns="http://www.w3.org/2000/svg">
<path d="M6.27503 0C7.97996 0 8.19269 0.006275 8.8616 0.0376502C9.5299 0.0690254 9.98484 0.173819 10.3852 0.329439C10.7993 0.488825 11.1482 0.704686 11.4971 1.05295C11.8162 1.36664 12.0631 1.74608 12.2206 2.16489C12.3756 2.56461 12.481 3.02017 12.5124 3.68847C12.5419 4.35738 12.5501 4.57011 12.5501 6.27503C12.5501 7.97996 12.5438 8.19269 12.5124 8.8616C12.481 9.5299 12.3756 9.98484 12.2206 10.3852C12.0636 10.8042 11.8166 11.1838 11.4971 11.4971C11.1833 11.8161 10.8039 12.063 10.3852 12.2206C9.98546 12.3756 9.5299 12.481 8.8616 12.5124C8.19269 12.5419 7.97996 12.5501 6.27503 12.5501C4.57011 12.5501 4.35738 12.5438 3.68847 12.5124C3.02017 12.481 2.56523 12.3756 2.16489 12.2206C1.74592 12.0634 1.36641 11.8165 1.05295 11.4971C0.733807 11.1835 0.4869 10.804 0.329439 10.3852C0.173819 9.98546 0.0690254 9.5299 0.0376502 8.8616C0.00815751 8.19269 0 7.97996 0 6.27503C0 4.57011 0.006275 4.35738 0.0376502 3.68847C0.0690254 3.01955 0.173819 2.56523 0.329439 2.16489C0.486463 1.74583 0.733428 1.36628 1.05295 1.05295C1.3665 0.733697 1.74598 0.486773 2.16489 0.329439C2.56523 0.173819 3.01955 0.0690254 3.68847 0.0376502C4.35738 0.00815751 4.57011 0 6.27503 0ZM6.27503 3.13752C5.44291 3.13752 4.64487 3.46808 4.05648 4.05648C3.46808 4.64487 3.13752 5.44291 3.13752 6.27503C3.13752 7.10716 3.46808 7.9052 4.05648 8.4936C4.64487 9.08199 5.44291 9.41255 6.27503 9.41255C7.10716 9.41255 7.9052 9.08199 8.4936 8.4936C9.08199 7.9052 9.41255 7.10716 9.41255 6.27503C9.41255 5.44291 9.08199 4.64487 8.4936 4.05648C7.9052 3.46808 7.10716 3.13752 6.27503 3.13752ZM10.3538 2.98064C10.3538 2.77261 10.2712 2.5731 10.1241 2.426C9.97697 2.2789 9.77746 2.19626 9.56943 2.19626C9.3614 2.19626 9.16189 2.2789 9.01479 2.426C8.86769 2.5731 8.78505 2.77261 8.78505 2.98064C8.78505 3.18867 8.86769 3.38818 9.01479 3.53528C9.16189 3.68238 9.3614 3.76502 9.56943 3.76502C9.77746 3.76502 9.97697 3.68238 10.1241 3.53528C10.2712 3.38818 10.3538 3.18867 10.3538 2.98064ZM6.27503 4.39252C6.77431 4.39252 7.25313 4.59086 7.60617 4.9439C7.95921 5.29694 8.15755 5.77576 8.15755 6.27503C8.15755 6.77431 7.95921 7.25313 7.60617 7.60617C7.25313 7.95921 6.77431 8.15755 6.27503 8.15755C5.77576 8.15755 5.29694 7.95921 4.9439 7.60617C4.59086 7.25313 4.39252 6.77431 4.39252 6.27503C4.39252 5.77576 4.59086 5.29694 4.9439 4.9439C5.29694 4.59086 5.77576 4.39252 6.27503 4.39252Z" fill="white"/>
</svg>
