<svg width="198" height="38" viewBox="0 0 198 38" fill="none" xmlns="http://www.w3.org/2000/svg">
<path d="M8.86154 35.8078V31.3959L8.83599 31.4307L6.20132 35.0545L3.57564 31.3959L3.55009 31.4307V35.8075H2.52728V30.4872H4.06193L6.20161 33.4977L8.34999 30.4872H9.88464V35.8075L8.86154 35.8078Z" fill="#DBDBDB"/>
<path d="M11.675 35.8077V30.4874H17.1227V31.4307H12.6981V32.5718H15.7756V33.5151H12.6981V34.8648H17.3189V35.8074L11.675 35.8077Z" fill="#DBDBDB"/>
<path d="M18.6402 35.8077V30.4874H19.6633V35.8077H18.6402Z" fill="#DBDBDB"/>
<path d="M25.1277 31.3918C24.7642 31.3023 24.3807 31.2569 23.9769 31.2569C22.8118 31.2569 22.2291 31.4678 22.2291 31.8888C22.2291 32.0331 22.2857 32.1409 22.3995 32.2131C22.5133 32.2855 22.6753 32.3386 22.8855 32.3736C23.0957 32.4084 23.3512 32.434 23.6526 32.4517C23.9539 32.4688 24.2951 32.4976 24.6757 32.538C25.085 32.5786 25.4433 32.6343 25.7502 32.7068C26.0567 32.7784 26.3113 32.8768 26.5131 33.0008C26.7149 33.1251 26.8656 33.2791 26.9649 33.463C27.0644 33.648 27.1144 33.8733 27.1144 34.1381C27.1144 34.709 26.8656 35.1503 26.3683 35.4619C25.8709 35.7727 25.139 35.9288 24.1728 35.9288C22.8257 35.9288 21.7489 35.6172 20.9418 34.9947L21.4961 34.2592C21.8537 34.5128 22.2547 34.7049 22.698 34.8342C23.1413 34.9638 23.6273 35.0286 24.1557 35.0286C24.7642 35.0286 25.2258 34.9526 25.5411 34.7997C25.8564 34.6469 26.0141 34.4439 26.0141 34.1903C26.0141 33.9019 25.8152 33.703 25.4172 33.5935C25.1271 33.5127 24.7851 33.4694 24.39 33.4633C23.9952 33.4577 23.5475 33.432 23.0473 33.3858C22.3995 33.3222 21.9223 33.1825 21.6151 32.9663C21.3082 32.7501 21.1549 32.4287 21.1549 32.0016C21.1549 31.4946 21.3965 31.0922 21.8799 30.795C22.3627 30.4981 23.0563 30.3496 23.96 30.3496C25.1422 30.3496 26.1 30.6091 26.8331 31.1279L26.2019 31.8024C25.8497 31.6177 25.4915 31.4808 25.1277 31.3918Z" fill="#DBDBDB"/>
<path d="M30.7036 31.4307V35.8074H29.6806V31.4307H27.1742V30.4874H33.2103V31.4307H30.7036Z" fill="#DBDBDB"/>
<path d="M34.2418 35.8077V30.4874H39.6894V31.4307H35.2649V32.5718H38.3426V33.5151H35.2649V34.8648H39.8857V35.8074L34.2418 35.8077Z" fill="#DBDBDB"/>
<path d="M46.2028 35.8077L44.8305 33.8526H42.2301V35.8077H41.207V30.4874H45.4439C45.7224 30.4874 45.9741 30.5278 46.1988 30.6088C46.4232 30.6895 46.6148 30.8032 46.7742 30.9505C46.9333 31.0975 47.0555 31.2745 47.1409 31.4822C47.2259 31.6902 47.2686 31.9205 47.2686 32.1747C47.2686 32.6069 47.1577 32.9604 46.9359 33.2346C46.7144 33.5086 46.3904 33.6942 45.9642 33.7925L47.3795 35.808L46.2028 35.8077ZM46.22 32.1912C46.22 31.9267 46.1401 31.7332 45.9813 31.6118C45.8219 31.4907 45.572 31.4307 45.2311 31.4307H42.2304V32.9097H45.2909C45.9102 32.9097 46.22 32.6702 46.22 32.1912Z" fill="#DBDBDB"/>
<path d="M54.3104 33.0567C54.5975 33.2066 54.8071 33.3854 54.9392 33.5931C55.0716 33.8002 55.1378 34.0606 55.1378 34.3714C55.1378 34.8386 54.9648 35.195 54.6184 35.4404C54.2721 35.6849 53.7614 35.8077 53.0858 35.8077H48.8288V30.4874H53.1427C53.4208 30.4874 53.6711 30.5237 53.8926 30.5952C54.1144 30.668 54.3022 30.7682 54.4552 30.8981C54.6088 31.0283 54.7267 31.1838 54.8092 31.3653C54.8916 31.547 54.9328 31.7476 54.9328 31.9668C54.9331 32.4163 54.7255 32.7795 54.3104 33.0567ZM53.7309 32.4773C53.8673 32.3618 53.9356 32.2124 53.9356 32.0278C53.9356 31.8428 53.8714 31.6972 53.7437 31.5906C53.6159 31.484 53.4324 31.4309 53.1938 31.4309H49.8516V32.6505H53.1595C53.404 32.6502 53.5947 32.5924 53.7309 32.4773ZM53.8502 34.7004C54.0264 34.5908 54.1147 34.4438 54.1147 34.2591C54.1147 34.0515 54.0352 33.8892 53.8758 33.7704C53.7164 33.652 53.4835 33.5931 53.177 33.5931H49.8519V34.8648H53.0919C53.4211 34.8648 53.674 34.8097 53.8502 34.7004Z" fill="#DBDBDB"/>
<path d="M56.6382 35.8077V30.4874H62.0858V31.4307H57.6613V32.5718H60.7387V33.5151H57.6613V34.8648H62.2821V35.8074L56.6382 35.8077Z" fill="#DBDBDB"/>
<path d="M66.4508 31.4307V35.8074H65.4277V31.4307H62.9214V30.4874H68.9577V31.4307H66.4508Z" fill="#DBDBDB"/>
<path d="M74.9764 35.8077L73.6038 33.8526H71.0034V35.8077H69.9803V30.4874H74.2172C74.4956 30.4874 74.7473 30.5278 74.9718 30.6088C75.1962 30.6895 75.3881 30.8032 75.5472 30.9505C75.7063 31.0975 75.8285 31.2745 75.9139 31.4822C75.9989 31.6902 76.0416 31.9205 76.0416 32.1747C76.0416 32.6069 75.9307 32.9604 75.7089 33.2346C75.4874 33.5086 75.1634 33.6942 74.7372 33.7925L76.1525 35.808L74.9764 35.8077ZM74.9935 32.1912C74.9935 31.9267 74.9137 31.7332 74.7546 31.6118C74.5952 31.4907 74.3455 31.4307 74.0044 31.4307H71.0036V32.9097H74.0642C74.6838 32.9097 74.9935 32.6702 74.9935 32.1912Z" fill="#DBDBDB"/>
<path d="M77.6024 35.8077V30.4874H78.6255V35.8077H77.6024Z" fill="#DBDBDB"/>
<path d="M80.4159 35.8077V30.4874H85.8635V31.4307H81.439V32.5718H84.5164V33.5151H81.439V34.8648H86.0598V35.8074L80.4159 35.8077Z" fill="#DBDBDB"/>
<path d="M92.8626 33.0567C93.1497 33.2066 93.3594 33.3854 93.4915 33.5931C93.6238 33.8002 93.69 34.0606 93.69 34.3714C93.69 34.8386 93.517 35.195 93.1707 35.4404C92.8246 35.6849 92.3133 35.8077 91.638 35.8077H87.381V30.4874H91.6949C91.9731 30.4874 92.2233 30.5237 92.4448 30.5952C92.6669 30.668 92.8545 30.7682 93.0078 30.8981C93.1614 31.0283 93.2792 31.1838 93.3614 31.3653C93.4438 31.547 93.4851 31.7476 93.4851 31.9668C93.4851 32.4163 93.2775 32.7795 92.8626 33.0567ZM92.2828 32.4773C92.4193 32.3618 92.4878 32.2124 92.4878 32.0278C92.4878 31.8428 92.4237 31.6972 92.2956 31.5906C92.1676 31.484 91.9844 31.4309 91.7458 31.4309H88.4039V32.6505H91.7118C91.9559 32.6502 92.1467 32.5924 92.2828 32.4773ZM92.4022 34.7004C92.5781 34.5908 92.6667 34.4438 92.6667 34.2591C92.6667 34.0515 92.5868 33.8892 92.4277 33.7704C92.2683 33.652 92.0355 33.5931 91.7286 33.5931H88.4039V34.8648H91.6436C91.9731 34.8648 92.2259 34.8097 92.4022 34.7004Z" fill="#DBDBDB"/>
<path d="M46.3509 8.80625V8.62037H38.2216V10.4665H43.8471C43.4567 11.4989 42.8197 12.2881 41.9359 12.8322C41.0502 13.378 39.9513 13.6496 38.6388 13.6496C37.7814 13.6496 37.0051 13.5368 36.3101 13.3106C35.6145 13.0835 35.0193 12.7633 34.5243 12.35C34.0287 11.937 33.6481 11.4433 33.3813 10.8706C33.1136 10.2986 32.9801 9.67347 32.9801 8.99212C32.9801 7.56521 33.581 6.39811 34.7827 5.49082C35.2727 5.12879 35.8482 4.84482 36.5107 4.64127C37.172 4.43801 37.8816 4.33521 38.6388 4.33521C39.6848 4.33521 40.6002 4.50959 41.3846 4.85984C42.1691 5.2098 42.8673 5.71823 43.4796 6.38456L45.3484 5.43544C44.4693 4.4115 43.4985 3.66476 42.4368 3.19432C41.373 2.72448 40.1627 2.48853 38.8057 2.48853C37.7042 2.48853 36.691 2.62992 35.7677 2.91271C34.8434 3.19462 34.0374 3.60732 33.347 4.14815C31.7111 5.40127 30.8941 7.01642 30.8941 8.99153C30.8941 10.9908 31.7003 12.6113 33.3139 13.8529C33.9814 14.361 34.7711 14.7619 35.6841 15.0553C36.5966 15.3487 37.5814 15.496 38.6388 15.496C39.807 15.496 40.8667 15.3358 41.8189 15.0141C42.7697 14.6915 43.5795 14.2373 44.2475 13.6496C44.9152 13.0628 45.4326 12.3573 45.7998 11.5322C46.1662 10.7089 46.3509 9.80043 46.3509 8.80625ZM59.6299 15.1405V13.2947H50.2984V2.87825H48.2952V15.1405H59.6299ZM71.5381 10.5504H65.3789L68.4665 4.62301L71.5381 10.5504ZM76.1113 15.1405L69.7192 2.87825H67.1984L60.8046 15.1405H62.9916L64.3936 12.3968H72.5226L73.9254 15.1405H76.1113ZM88.182 5.758L89.4005 4.38558C87.6426 3.17753 85.4617 2.57336 82.8572 2.57336C80.8874 2.57336 79.38 2.9077 78.3337 3.57315C77.2874 4.23977 76.7651 5.14853 76.7651 6.29942C76.7651 6.88739 76.8812 7.37226 77.1149 7.75609C77.3489 8.14051 77.6999 8.4507 78.167 8.68871C78.6333 8.92525 79.2151 9.10318 79.911 9.22101C80.6063 9.34031 81.4224 9.43339 82.357 9.50115C83.2465 9.5577 84.0403 9.61132 84.7353 9.66169C85.4309 9.71324 86.0174 9.80073 86.4967 9.92474C86.9757 10.0482 87.3398 10.229 87.59 10.4668C87.8403 10.703 87.9657 11.0424 87.9657 11.483C87.9657 12.1494 87.5924 12.6764 86.8477 13.0661C86.1004 13.4561 85.005 13.6502 83.5583 13.6502C82.4455 13.6502 81.3937 13.5097 80.4028 13.2272C79.4131 12.9453 78.4278 12.499 77.4497 11.889L76.347 13.363C77.2261 14.0741 78.2579 14.597 79.4445 14.9295C80.6287 15.2624 81.9944 15.4294 83.5412 15.4294C85.7 15.4294 87.3395 15.0733 88.4575 14.3619C89.5761 13.6502 90.1356 12.6451 90.1356 11.3466C90.1356 10.3204 89.7724 9.52942 89.0498 8.97622C88.3263 8.42301 87.2086 8.05096 85.6954 7.8586C85.0825 7.77995 84.4981 7.72251 83.9421 7.68893C83.3862 7.65446 82.8656 7.62412 82.3817 7.59555C81.8977 7.56756 81.4512 7.52839 81.0459 7.47772C80.6394 7.42705 80.2701 7.33956 79.9366 7.21437C79.2357 6.96663 78.8841 6.57132 78.8841 6.0293C78.8841 5.52057 79.2067 5.11789 79.853 4.8186C80.498 4.51843 81.4489 4.36967 82.7071 4.36967C83.6646 4.36967 84.5899 4.48308 85.4867 4.70755C86.3826 4.93349 87.2811 5.28256 88.182 5.758ZM104.505 15.1405V13.2947H94.0715L104.054 4.72493V2.87825H91.5181V4.72493H101.349L91.3674 13.2947V15.1405H104.505ZM118.609 15.1405V13.2947H107.96V9.7047H115.037V7.85801H107.96V4.72522H118.142V2.87825H105.956V15.1405H118.609ZM133.729 15.1405V2.87825H131.726V12.9388L122.495 2.87825H120.007V15.1405H122.012V5.08018L131.259 15.1405H133.729ZM148.575 4.72522V2.87825H135.021V4.72493H140.797V15.1405H142.8V4.72522H148.575ZM159.098 8.62037H151.87V4.72522H158.914C160.584 4.72522 161.418 5.39685 161.418 6.74011C161.418 7.35046 161.221 7.8156 160.826 8.13756C160.431 8.45835 159.854 8.62037 159.098 8.62037ZM163.571 15.1405L160.333 10.3642C160.777 10.2862 161.192 10.1557 161.577 9.97511C161.961 9.79425 162.294 9.55505 162.579 9.25488C162.861 8.95648 163.081 8.59739 163.237 8.17998C163.393 7.76169 163.471 7.28124 163.471 6.74011C163.471 5.54355 163.112 4.60091 162.393 3.91161C161.675 3.22349 160.677 2.87854 159.399 2.87854H149.867V15.1408H151.87V10.4665H157.978L161.251 15.1405H163.571ZM178.674 11.1776V2.87825H176.672V10.6986C176.672 11.6601 176.265 12.3944 175.454 12.9032C174.642 13.4125 173.438 13.6667 171.848 13.6667C170.245 13.6667 169.035 13.4125 168.217 12.9032C167.398 12.3942 166.99 11.6598 166.99 10.6986V2.87825H164.988V11.1776C164.988 11.7988 165.146 12.375 165.463 12.9041C165.781 13.4355 166.233 13.8924 166.823 14.2765C167.413 14.6609 168.134 14.9622 168.985 15.1829C169.836 15.4026 170.871 15.5125 171.93 15.5125C172.986 15.5125 173.853 15.4056 174.693 15.1905C175.535 14.9776 176.249 14.6747 176.839 14.2847C177.429 13.8965 177.881 13.4384 178.199 12.9135C178.516 12.3891 178.674 11.81 178.674 11.1776ZM197.616 15.1405V2.87825H195.129L189.304 10.2962L183.495 2.87825H181.007V15.1405H183.011V5.11377H183.059L189.287 13.1085L195.563 5.11377H195.613V15.1408L197.616 15.1405Z" fill="#DBDBDB"/>
<path d="M44.6925 29.0151V16.684H42.6786V26.8L33.3975 16.684H30.8961V29.0151H32.9092V18.8971L42.2091 29.0151H44.6925ZM59.605 24.7373C59.3355 25.3132 58.9552 25.8064 58.4625 26.2167C57.9701 26.6273 57.3747 26.9458 56.6747 27.1732C55.9753 27.4018 55.1897 27.5149 54.3176 27.5149C53.4437 27.5149 52.6555 27.4018 51.9509 27.1732C51.2457 26.9458 50.6439 26.627 50.1454 26.2167C49.6481 25.8061 49.2648 25.3132 48.9963 24.7373C48.728 24.1623 48.5933 23.5272 48.5933 22.832C48.5933 22.1607 48.7335 21.5356 49.0117 20.9603C49.293 20.3844 49.6843 19.889 50.1883 19.4733C50.6912 19.0568 51.2936 18.7325 51.9918 18.4992C52.6915 18.265 53.4667 18.1486 54.3179 18.1486C55.0893 18.1486 55.8058 18.2517 56.4654 18.4556C57.1256 18.6612 57.7022 18.9463 58.1951 19.3104C59.4026 20.223 60.0073 21.3963 60.0073 22.8323C60.0073 23.5269 59.8729 24.162 59.605 24.7373ZM59.6378 17.9616C58.9665 17.4384 58.1719 17.0295 57.2542 16.7347C56.3365 16.4398 55.3572 16.2916 54.3176 16.2916C53.2652 16.2916 52.283 16.4398 51.372 16.7347C50.4586 17.0295 49.662 17.4384 48.9794 17.9616C47.3226 19.2326 46.4949 20.8569 46.4949 22.832C46.4949 24.8413 47.3118 26.4712 48.9458 27.7199C49.6167 28.2307 50.4139 28.634 51.3372 28.9291C52.2612 29.2234 53.2544 29.3713 54.3176 29.3713C55.3802 29.3713 56.3673 29.2269 57.2798 28.9371C58.192 28.6469 58.9831 28.2472 59.6546 27.7358C61.2888 26.4874 62.1055 24.8531 62.1055 22.832C62.1052 20.8569 61.2824 19.2326 59.6378 17.9616ZM73.1891 22.4573H65.9209V18.5401H73.0045C74.6829 18.5401 75.5222 19.2153 75.5222 20.5668C75.5222 21.1795 75.3227 21.6487 74.9264 21.9722C74.5293 22.2947 73.9498 22.4573 73.1891 22.4573ZM77.6877 29.0151L74.4309 24.2109C74.8785 24.1314 75.2954 24.0015 75.6822 23.8197C76.068 23.6377 76.4036 23.3973 76.689 23.0954C76.9741 22.7955 77.1944 22.4353 77.3521 22.014C77.5089 21.5937 77.587 21.1117 77.587 20.5668C77.587 19.3629 77.2255 18.4149 76.5041 17.7221C75.7829 17.0295 74.7784 16.684 73.492 16.684H63.9075V29.0151H65.9215V24.3135H72.0653L75.355 29.0151H77.6877ZM87.4452 27.1579H81.2183V18.5401H87.0608C87.7419 18.5401 88.3605 18.6444 88.9145 18.855C89.4687 19.0659 89.9437 19.3628 90.3405 19.7499C90.7377 20.1349 91.0463 20.5986 91.2641 21.138C91.4824 21.677 91.5918 22.2756 91.5918 22.934C91.5918 23.5476 91.4888 24.1114 91.2818 24.6286C91.0739 25.1447 90.7891 25.5907 90.4241 25.9657C90.0612 26.3398 89.6258 26.6332 89.1157 26.843C88.607 27.0527 88.0505 27.1579 87.4452 27.1579ZM86.8915 16.684H79.2041V29.0151H87.2776C88.1614 29.0151 88.9897 28.874 89.7613 28.5969C90.5345 28.3194 91.2167 27.9123 91.8104 27.3779C92.4584 26.8 92.9488 26.1407 93.2786 25.4028C93.6084 24.6652 93.7745 23.8598 93.7745 22.9852C93.7745 22.0308 93.6136 21.1665 93.296 20.3871C92.9758 19.6103 92.5206 18.949 91.9277 18.404C91.334 17.8588 90.6126 17.436 89.7616 17.1353C88.9113 16.8336 87.9547 16.684 86.8915 16.684Z" fill="#DBDBDB"/>
<g clip-path="url(#clip0_10084_1095)">
<path d="M1.12067 11.2648L1.20602 11.0023L2.46138 11.418L2.7067 10.6536L2.93083 10.7272L2.6016 11.7532L1.12067 11.2648Z" fill="#DBDBDB"/>
<path d="M3.08467 8.89849L3.31664 8.47637L2.61696 8.35235L2.61435 8.35765L3.08467 8.89849ZM2.31067 8.34852L2.45293 8.09106L4.10719 8.33144L3.96493 8.58978L3.53293 8.51525L3.22925 9.06699L3.51783 9.40162L3.38051 9.65142L2.31067 8.34852Z" fill="#DBDBDB"/>
<path d="M4.59782 6.78992C4.77898 6.94898 4.96653 6.87564 5.10908 6.70891C5.26644 6.5248 5.23653 6.3781 5.14711 6.30004C5.05624 6.21933 4.97756 6.237 4.91834 6.26999C4.81469 6.32567 4.69973 6.41551 4.51508 6.54071C4.28544 6.69683 4.11327 6.64911 3.99076 6.54218C3.75531 6.33392 3.83369 6.01578 4.01747 5.79897C4.23173 5.55123 4.54005 5.45697 4.78653 5.67289L4.6074 5.88174C4.44744 5.75861 4.30315 5.81252 4.17918 5.95627C4.09586 6.05348 4.02618 6.20666 4.1455 6.31094C4.22708 6.38458 4.32173 6.3675 4.41782 6.30269C4.43873 6.28855 4.73311 6.08294 4.80453 6.03787C4.98511 5.92151 5.18137 5.96246 5.30389 6.06968C5.5675 6.3021 5.46937 6.6332 5.26586 6.86974C5.03302 7.1437 4.71511 7.25004 4.41869 6.99788L4.59782 6.78992Z" fill="#DBDBDB"/>
<path d="M5.71875 4.15057L6.60946 3.45508L6.75259 3.64508L6.07875 4.17178L6.32872 4.49934L6.95175 4.01241L7.08849 4.1921L6.46459 4.67874L6.74243 5.04637L7.42759 4.51054L7.57246 4.70024L6.67014 5.40516L5.71875 4.15057Z" fill="#DBDBDB"/>
<path d="M8.61183 3.0701L9.01509 2.87156C9.17041 2.79409 9.21773 2.67449 9.14457 2.52543C9.05748 2.34457 8.92451 2.36519 8.79735 2.42822L8.39873 2.62529L8.61183 3.0701ZM8.05499 2.5437L8.72506 2.21201C9.03251 2.06119 9.2578 2.12688 9.37451 2.36725C9.50486 2.64091 9.3507 2.80292 9.31354 2.84092L9.31586 2.84534C9.40673 2.815 9.56061 2.81795 9.6689 3.043C9.74873 3.20796 9.84483 3.34818 9.92583 3.3797L9.66222 3.51019C9.59457 3.46689 9.55857 3.38853 9.5249 3.31931C9.39773 3.05773 9.29061 2.96847 9.06415 3.08071L8.70241 3.25833L8.98373 3.84542L8.7387 3.96767L8.05499 2.5437Z" fill="#DBDBDB"/>
<path d="M10.8354 1.38272L11.9224 1.10022L11.9813 1.33175L11.1576 1.5465L11.2584 1.94682L12.0205 1.74975L12.0756 1.96892L11.3138 2.16658L11.4276 2.61462L12.2649 2.39693L12.3236 2.62965L11.2218 2.91568L10.8354 1.38272Z" fill="#DBDBDB"/>
<path d="M13.8388 0.830688L13.5665 0.855433L13.7041 2.42993L13.9747 2.40607L13.8388 0.830688Z" fill="#DBDBDB"/>
<path d="M14.6192 12.7713V2.96814C8.05674 3.13988 2.76794 8.51761 2.56384 15.2065H12.2197L14.6192 12.7713Z" fill="#00A13A"/>
<path d="M18.7819 16.7516L16.142 19.4299V29.0972C22.8037 28.9245 28.1593 23.4752 28.2176 16.7516H18.7819Z" fill="#00A13A"/>
<path d="M12.9995 27.656H12.4165L10.9785 25.2997H10.9649V27.656H10.4382V24.4516H11.0224L12.4656 26.8117H12.474V24.4516H13V27.656H12.9995ZM10.0257 27.656H7.43775V27.1994L9.27898 24.9353H7.57914V24.4513H9.98156V24.8764L8.1415 27.1711H10.026L10.0257 27.656ZM7.06992 27.656H6.71746L6.63211 27.2789C6.33627 27.6209 6.06627 27.7326 5.68101 27.7326C4.73398 27.7326 4.16901 26.9679 4.16901 26.0541C4.16901 25.1383 4.73398 24.3744 5.68101 24.3744C6.37169 24.3744 6.9503 24.7471 7.03508 25.4691H6.49508C6.44224 25.0484 6.07992 24.8319 5.68101 24.8319C5.00427 24.8319 4.72092 25.4379 4.72092 26.0541C4.72092 26.6698 5.00456 27.2751 5.68101 27.2751C6.24743 27.2834 6.55779 26.9387 6.56621 26.3955H5.72543V25.9693H7.06992V27.656ZM12.1822 16.7515H2.54785V29.1026H14.6195V19.2232L12.1822 16.7515Z" fill="#DBDBDB"/>
<path d="M2.27122 13.1951L2.25264 13.371L2.06567 13.3934C2.21519 13.5595 2.25467 13.6997 2.23551 13.8915C2.18499 14.3631 1.78551 14.6055 1.34219 14.5572C0.898576 14.5083 0.558608 14.1866 0.609705 13.7139C0.645705 13.3701 0.856769 13.1006 1.21067 13.0979L1.18222 13.3657C0.97493 13.3701 0.851543 13.5403 0.83093 13.7383C0.795221 14.0759 1.07364 14.2491 1.3718 14.2803C1.66967 14.3133 1.97683 14.2043 2.01341 13.867C2.04767 13.5857 1.8967 13.4134 1.63367 13.3807L1.58983 13.7984L1.38225 13.7763L1.45367 13.1064L2.27122 13.1951Z" fill="#DBDBDB"/>
<path d="M16.1318 2.9613V12.5559L18.7441 15.2064H28.204V2.9613H16.1318Z" fill="#DBDBDB"/>
</g>
<defs>
<clipPath id="clip0_10084_1095">
<rect width="29.3226" height="29.7519" fill="white"/>
</clipPath>
</defs>
</svg>
