<svg width="18" height="18" viewBox="0 0 18 18" fill="none" xmlns="http://www.w3.org/2000/svg">
<path d="M5.07074 0.156688C3.89814 -0.139931 2.66917 -0.0140928 1.70629 0.522967C0.725362 1.06902 0.0375885 2.03752 0.0037636 3.33298C-0.0481013 5.35763 0.422065 8.07439 2.2892 11.263C4.13266 14.4124 6.16779 16.3 7.85678 17.4213C8.9234 18.1302 10.1016 18.1493 11.1085 17.6875C12.1007 17.2325 12.9057 16.3235 13.324 15.1966C13.4281 14.9163 13.4699 14.6169 13.4466 14.3189C13.4232 14.021 13.3352 13.7316 13.1887 13.4708L12.1131 11.5585C11.7824 10.97 11.2503 10.5196 10.6139 10.2898C9.97754 10.06 9.27943 10.0661 8.64716 10.3069L7.89625 10.5934C7.53207 10.7316 7.1972 10.6676 7.00778 10.4811C6.37074 9.85748 5.91523 9.01144 5.7089 8.09911C5.64351 7.81148 5.77655 7.47217 6.09451 7.23285L6.77213 6.72275C7.31995 6.31082 7.69814 5.71387 7.83577 5.04387C7.97339 4.37387 7.861 3.67686 7.51966 3.08355L6.42374 1.17912C6.27855 0.926992 6.08394 0.706542 5.8515 0.530892C5.61906 0.355243 5.35354 0.227983 5.07074 0.156688ZM1.13126 3.36332C1.15381 2.49369 1.59579 1.87236 2.2565 1.50383C2.93526 1.12519 3.86206 1.00947 4.79337 1.24541C4.92984 1.27976 5.05797 1.34113 5.17012 1.42587C5.28228 1.51061 5.37617 1.61699 5.44619 1.73866L6.541 3.64308C6.74576 3.99892 6.81327 4.41696 6.73087 4.81885C6.64847 5.22074 6.42181 5.57888 6.09338 5.82616L5.41575 6.33625C4.82945 6.77668 4.42355 7.53171 4.60846 8.34629C4.85877 9.44963 5.41237 10.4957 6.2174 11.2833C6.80596 11.8585 7.64481 11.8922 8.29876 11.6428L9.04968 11.3563C9.42907 11.2116 9.84806 11.2078 10.23 11.3456C10.612 11.4834 10.9314 11.7536 11.1299 12.1068L12.2044 14.0203C12.3397 14.2607 12.3623 14.5483 12.2664 14.8067C11.9395 15.6887 11.325 16.3505 10.6372 16.6662C9.96408 16.9752 9.20302 16.9662 8.48255 16.4865C6.93675 15.4595 5.02113 13.6989 3.26223 10.6968C1.50221 7.68564 1.08503 5.17562 1.13239 3.36332H1.13126ZM12.0702 0.0960159C11.9396 0.0236054 11.7854 0.00589026 11.6416 0.0467676C11.4978 0.0876449 11.3762 0.183766 11.3035 0.313986C11.2309 0.444206 11.2131 0.597857 11.2541 0.741138C11.2951 0.88442 11.3916 1.00559 11.5223 1.078L11.9552 1.31845C13.3078 2.06719 14.4583 3.13114 15.3085 4.41936C16.1587 5.70758 16.6832 7.18177 16.8373 8.71594L16.8734 9.06986C16.8776 9.14561 16.8973 9.21972 16.931 9.28771C16.9648 9.35571 17.0121 9.41618 17.0699 9.46548C17.1278 9.51478 17.1951 9.55188 17.2678 9.57456C17.3404 9.59723 17.4169 9.60501 17.4927 9.59741C17.5684 9.58982 17.6419 9.56701 17.7085 9.53037C17.7752 9.49373 17.8337 9.44401 17.8806 9.38421C17.9274 9.32441 17.9617 9.25577 17.9812 9.18244C18.0007 9.1091 18.0051 9.03259 17.9941 8.95751L17.9592 8.60471C17.7871 6.8897 17.2009 5.24172 16.2506 3.80164C15.3002 2.36156 14.0141 1.17224 12.5021 0.335334L12.0702 0.0960159ZM10.7488 3.10715C10.8258 2.97948 10.9506 2.88752 11.0956 2.85149C11.2407 2.81546 11.3941 2.83831 11.5223 2.91502L11.6621 2.99816C12.5722 3.54191 13.353 4.27612 13.9504 5.15005C14.5479 6.02397 14.9477 7.01676 15.1224 8.05979L15.172 8.35978C15.1862 8.43334 15.1855 8.50899 15.1699 8.58228C15.1543 8.65556 15.1241 8.725 15.0812 8.7865C15.0383 8.84801 14.9835 8.90034 14.92 8.94042C14.8565 8.9805 14.7856 9.00751 14.7114 9.01988C14.6373 9.03224 14.5614 9.0297 14.4883 9.01241C14.4151 8.99512 14.3462 8.96343 14.2855 8.9192C14.2248 8.87496 14.1737 8.81909 14.135 8.75485C14.0963 8.69062 14.0709 8.61932 14.0603 8.54516L14.0095 8.24517C13.862 7.36278 13.524 6.52282 13.0188 5.78335C12.5137 5.04387 11.8534 4.4225 11.0837 3.96217L10.9439 3.87791C10.8803 3.84 10.8249 3.78999 10.7808 3.73073C10.7367 3.67148 10.7047 3.60414 10.6867 3.53256C10.6687 3.46099 10.665 3.38658 10.6758 3.31358C10.6867 3.24059 10.7119 3.17044 10.7499 3.10715H10.7488Z" fill="#FBFBFB"/>
</svg>
