<svg width="31" height="26" viewBox="0 0 31 26" fill="none" xmlns="http://www.w3.org/2000/svg">
<g clip-path="url(#clip0_6092_7317)">
<path fill-rule="evenodd" clip-rule="evenodd" d="M19.5537 25.4428C26.0805 21.268 29.7062 16.4095 30.4317 10.8646C31.5611 2.23438 23.8121 -1.98965 19.8856 1.80533C15.9591 5.60118 18.3124 10.4183 21.1555 11.7357C23.9985 13.0522 25.7372 12.5938 25.4339 14.354C25.1305 16.1134 21.0861 20.9926 17.5323 23.2648C17.4064 23.3714 17.3261 23.5219 17.3077 23.6855C17.2893 23.8492 17.3343 24.0136 17.4335 24.1453L18.3124 25.284C18.6938 25.7778 19.0596 25.7588 19.5537 25.4437M2.36895 25.4428C8.89578 21.268 12.5224 16.4086 13.247 10.8646C14.3764 2.23438 6.62742 -1.98965 2.70093 1.80533C-1.22557 5.60118 1.12773 10.4183 3.97162 11.7357C6.81465 13.0522 8.5534 12.5938 8.25003 14.354C7.94666 16.1134 3.90141 20.9926 0.347631 23.2648C0.221827 23.3716 0.141651 23.5221 0.123451 23.6857C0.105251 23.8493 0.150398 24.0137 0.249685 24.1453L1.1286 25.284C1.50998 25.7778 1.87576 25.7588 2.36895 25.4437" fill="white"/>
</g>
<defs>
<clipPath id="clip0_6092_7317">
<rect width="31" height="26" fill="white" transform="matrix(-1 0 0 -1 31 26)"/>
</clipPath>
</defs>
</svg>
