<svg width="13" height="11" viewBox="0 0 13 11" fill="none" xmlns="http://www.w3.org/2000/svg">
<path d="M12.5495 1.21132C12.0794 1.41924 11.581 1.55578 11.0706 1.61644C11.6085 1.29471 12.0112 0.788359 12.2034 0.191754C11.6986 0.492207 11.1451 0.702771 10.5682 0.816672C10.1807 0.402058 9.66705 0.127085 9.10715 0.0344996C8.54724 -0.0580857 7.97243 0.0369047 7.47209 0.304703C6.97174 0.572502 6.57388 0.998104 6.34037 1.51534C6.10686 2.03258 6.05077 2.61248 6.18084 3.16489C5.15702 3.11357 4.15545 2.84752 3.24113 2.38399C2.32681 1.92047 1.5202 1.26984 0.873653 0.474353C0.644798 0.867435 0.524534 1.31428 0.525177 1.76913C0.525177 2.66187 0.979551 3.45056 1.67035 3.91232C1.26154 3.89945 0.861729 3.78905 0.504244 3.59032V3.62234C0.504367 4.2169 0.710109 4.79313 1.08659 5.25332C1.46306 5.7135 1.9871 6.02933 2.56986 6.14725C2.19036 6.25009 1.79244 6.26525 1.40622 6.19158C1.57052 6.70336 1.89076 7.15094 2.3221 7.47165C2.75344 7.79237 3.27428 7.97016 3.81169 7.98014C3.27757 8.39962 2.66601 8.70971 2.01198 8.89268C1.35794 9.07566 0.674251 9.12793 0 9.0465C1.177 9.80344 2.54714 10.2053 3.94652 10.204C8.68297 10.204 11.2731 6.28024 11.2731 2.87736C11.2731 2.76654 11.2701 2.65448 11.2651 2.54489C11.7693 2.18051 12.2044 1.72913 12.5501 1.21194L12.5495 1.21132Z" fill="white"/>
</svg>
