<svg width="13" height="10" viewBox="0 0 13 10" fill="none" xmlns="http://www.w3.org/2000/svg">
<path d="M12.2633 1.41511C12.5501 2.4246 12.5501 4.53197 12.5501 4.53197C12.5501 4.53197 12.5501 6.63934 12.2633 7.64883C12.1039 8.20683 11.6377 8.64587 11.0472 8.79429C9.9748 9.06394 6.27503 9.06394 6.27503 9.06394C6.27503 9.06394 2.57716 9.06394 1.50287 8.79429C0.90988 8.6436 0.444272 8.20513 0.286769 7.64883C1.87011e-08 6.63934 0 4.53197 0 4.53197C0 4.53197 1.87011e-08 2.4246 0.286769 1.41511C0.446155 0.857109 0.91239 0.418074 1.50287 0.269652C2.57716 -1.01297e-07 6.27503 0 6.27503 0C6.27503 0 9.9748 -1.01297e-07 11.0472 0.269652C11.6402 0.42034 12.1058 0.858808 12.2633 1.41511ZM5.02003 6.51471L8.78505 4.53197L5.02003 2.54923V6.51471Z" fill="white"/>
</svg>
