<svg width="232" height="46" viewBox="0 0 232 46" fill="none" xmlns="http://www.w3.org/2000/svg">
<path d="M10.3831 43.3462V38.0056L10.3532 38.0477L7.26611 42.4344L4.18956 38.0056L4.15962 38.0477V43.3459H2.96118V36.9055H4.75935L7.26645 40.5499L9.78375 36.9055H11.5819V43.3459L10.3831 43.3462Z" fill="#2D2E83"/>
<path d="M13.6797 43.3462V36.9059H20.0627V38.0477H14.8785V39.4291H18.4843V40.5709H14.8785V42.2048H20.2927V43.3459L13.6797 43.3462Z" fill="#2D2E83"/>
<path d="M21.8411 43.3462V36.9059H23.0398V43.3462H21.8411Z" fill="#2D2E83"/>
<path d="M29.4425 38.0006C29.0166 37.8922 28.5672 37.8373 28.094 37.8373C26.7289 37.8373 26.0462 38.0926 26.0462 38.6022C26.0462 38.7769 26.1125 38.9074 26.2459 38.9948C26.3792 39.0825 26.569 39.1467 26.8153 39.1891C27.0616 39.2312 27.361 39.2622 27.7141 39.2836C28.0672 39.3043 28.4669 39.3393 28.9128 39.3881C29.3925 39.4373 29.8123 39.5047 30.1718 39.5924C30.5311 39.6791 30.8294 39.7982 31.0658 39.9483C31.3022 40.0988 31.4788 40.2853 31.5951 40.5078C31.7118 40.7317 31.7703 41.0045 31.7703 41.3251C31.7703 42.0162 31.4788 42.5503 30.8961 42.9276C30.3133 43.3038 29.4558 43.4928 28.3237 43.4928C26.7452 43.4928 25.4835 43.1155 24.5378 42.3621L25.1872 41.4717C25.6063 41.7787 26.0761 42.0112 26.5956 42.1677C27.115 42.3246 27.6845 42.4031 28.3036 42.4031C29.0166 42.4031 29.5575 42.3111 29.9269 42.126C30.2963 41.9409 30.4811 41.6952 30.4811 41.3882C30.4811 41.0391 30.248 40.7984 29.7817 40.6658C29.4418 40.5681 29.0411 40.5156 28.5781 40.5082C28.1155 40.5014 27.5909 40.4704 27.0048 40.4144C26.2459 40.3374 25.6866 40.1683 25.3267 39.9066C24.9671 39.6449 24.7875 39.2558 24.7875 38.7388C24.7875 38.1251 25.0706 37.638 25.6369 37.2782C26.2027 36.9187 27.0153 36.739 28.0743 36.739C29.4595 36.739 30.5817 37.0532 31.4407 37.6811L30.7011 38.4977C30.2885 38.2741 29.8687 38.1083 29.4425 38.0006Z" fill="#2D2E83"/>
<path d="M35.9759 38.0477V43.3459H34.7771V38.0477H31.8403V36.9059H38.9129V38.0477H35.9759Z" fill="#2D2E83"/>
<path d="M40.1216 43.3462V36.9059H46.5046V38.0477H41.3204V39.4291H44.9266V40.5709H41.3204V42.2048H46.7346V43.3459L40.1216 43.3462Z" fill="#2D2E83"/>
<path d="M54.1365 43.3462L52.5285 40.9796H49.4815V43.3462H48.2827V36.9059H53.2472C53.5735 36.9059 53.8684 36.9547 54.1317 37.0528C54.3947 37.1505 54.6192 37.2881 54.8059 37.4664C54.9923 37.6444 55.1356 37.8587 55.2356 38.1101C55.3352 38.3618 55.3852 38.6407 55.3852 38.9484C55.3852 39.4715 55.2553 39.8994 54.9954 40.2314C54.7359 40.5631 54.3562 40.7877 53.8568 40.9068L55.5152 43.3466L54.1365 43.3462ZM54.1565 38.9684C54.1565 38.6482 54.063 38.4139 53.8769 38.267C53.6902 38.1204 53.3973 38.0477 52.9979 38.0477H49.4818V39.8381H53.068C53.7936 39.8381 54.1565 39.5482 54.1565 38.9684Z" fill="#2D2E83"/>
<path d="M63.6362 40.0161C63.9727 40.1976 64.2183 40.414 64.3731 40.6654C64.5282 40.9161 64.6057 41.2313 64.6057 41.6075C64.6057 42.1731 64.403 42.6045 63.9972 42.9016C63.5913 43.1975 62.993 43.3462 62.2014 43.3462H57.2134V36.9059H62.2681C62.5939 36.9059 62.8872 36.9497 63.1467 37.0364C63.4066 37.1245 63.6267 37.2457 63.806 37.403C63.9859 37.5606 64.1241 37.7489 64.2207 37.9685C64.3173 38.1885 64.3656 38.4314 64.3656 38.6967C64.3659 39.2408 64.1227 39.6805 63.6362 40.0161ZM62.9572 39.3146C63.1171 39.1749 63.1971 38.9941 63.1971 38.7705C63.1971 38.5465 63.1219 38.3704 62.9722 38.2413C62.8225 38.1122 62.6075 38.048 62.3279 38.048H58.4118V39.5243H62.2878C62.5742 39.524 62.7977 39.4541 62.9572 39.3146ZM63.0971 42.0058C63.3035 41.8732 63.407 41.6952 63.407 41.4717C63.407 41.2203 63.3138 41.0238 63.127 40.8801C62.9402 40.7367 62.6674 40.6654 62.3082 40.6654H58.4122V42.2048H62.2085C62.5943 42.2048 62.8906 42.1381 63.0971 42.0058Z" fill="#2D2E83"/>
<path d="M66.3638 43.3462V36.9059H72.7468V38.0477H67.5625V39.4291H71.1684V40.5709H67.5625V42.2048H72.9768V43.3459L66.3638 43.3462Z" fill="#2D2E83"/>
<path d="M77.8616 38.0477V43.3459H76.6628V38.0477H73.7261V36.9059H80.799V38.0477H77.8616Z" fill="#2D2E83"/>
<path d="M87.8512 43.3462L86.2428 40.9796H83.1959V43.3462H81.9971V36.9059H86.9616C87.2878 36.9059 87.5828 36.9547 87.8457 37.0528C88.1087 37.1505 88.3335 37.2881 88.5199 37.4664C88.7064 37.6444 88.8496 37.8587 88.9496 38.1101C89.0493 38.3618 89.0993 38.6407 89.0993 38.9484C89.0993 39.4715 88.9693 39.8994 88.7094 40.2314C88.4499 40.5631 88.0702 40.7877 87.5709 40.9068L89.2292 43.3466L87.8512 43.3462ZM87.8712 38.9684C87.8712 38.6482 87.7777 38.4139 87.5913 38.267C87.4045 38.1204 87.112 38.0477 86.7123 38.0477H83.1962V39.8381H86.7823C87.5083 39.8381 87.8712 39.5482 87.8712 38.9684Z" fill="#2D2E83"/>
<path d="M90.928 43.3462V36.9059H92.1268V43.3462H90.928Z" fill="#2D2E83"/>
<path d="M94.2246 43.3462V36.9059H100.608V38.0477H95.4234V39.4291H99.0293V40.5709H95.4234V42.2048H100.838V43.3459L94.2246 43.3462Z" fill="#2D2E83"/>
<path d="M108.809 40.0161C109.145 40.1976 109.391 40.414 109.545 40.6654C109.701 40.9161 109.778 41.2313 109.778 41.6075C109.778 42.1731 109.575 42.6045 109.17 42.9016C108.764 43.1975 108.165 43.3462 107.374 43.3462H102.386V36.9059H107.44C107.766 36.9059 108.06 36.9497 108.319 37.0364C108.579 37.1245 108.799 37.2457 108.979 37.403C109.159 37.5606 109.297 37.7489 109.393 37.9685C109.49 38.1885 109.538 38.4314 109.538 38.6967C109.538 39.2408 109.295 39.6805 108.809 40.0161ZM108.129 39.3146C108.289 39.1749 108.369 38.9941 108.369 38.7705C108.369 38.5465 108.294 38.3704 108.144 38.2413C107.994 38.1122 107.78 38.048 107.5 38.048H103.584V39.5243H107.46C107.746 39.524 107.97 39.4541 108.129 39.3146ZM108.269 42.0058C108.475 41.8732 108.579 41.6952 108.579 41.4717C108.579 41.2203 108.485 41.0238 108.299 40.8801C108.112 40.7367 107.839 40.6654 107.48 40.6654H103.584V42.2048H107.38C107.766 42.2048 108.063 42.1381 108.269 42.0058Z" fill="#2D2E83"/>
<path d="M54.3102 10.6602V10.4352H44.7849V12.67H51.3765C50.919 13.9198 50.1726 14.8751 49.1371 15.5337C48.0993 16.1945 46.8117 16.5233 45.2738 16.5233C44.2692 16.5233 43.3596 16.3867 42.5452 16.1128C41.7301 15.8379 41.0328 15.4503 40.4528 14.95C39.8721 14.45 39.4261 13.8524 39.1135 13.1592C38.7999 12.4667 38.6434 11.71 38.6434 10.8852C38.6434 9.15791 39.3475 7.7451 40.7555 6.64681C41.3298 6.20856 42.004 5.86481 42.7803 5.6184C43.5552 5.37236 44.3866 5.24791 45.2738 5.24791C46.4994 5.24791 47.572 5.45901 48.4911 5.88299C49.4103 6.30662 50.2284 6.92209 50.9458 7.7287L53.1356 6.57977C52.1055 5.34027 50.968 4.43631 49.7239 3.86684C48.4775 3.29808 47.0593 3.01245 45.4694 3.01245C44.1787 3.01245 42.9915 3.18361 41.9098 3.52594C40.8266 3.8672 39.8823 4.36678 39.0734 5.02147C37.1565 6.5384 36.1992 8.49358 36.1992 10.8845C36.1992 13.3047 37.1439 15.2663 39.0346 16.7693C39.8166 17.3844 40.7419 17.8697 41.8118 18.2249C42.881 18.5801 44.0348 18.7584 45.2738 18.7584C46.6426 18.7584 47.8843 18.5644 49 18.175C50.1141 17.7845 51.0629 17.2347 51.8456 16.5233C52.628 15.8129 53.2342 14.9589 53.6645 13.9601C54.0938 12.9634 54.3102 11.8637 54.3102 10.6602ZM69.8695 18.328V16.0936H58.9356V3.48422H56.5883V18.328H69.8695ZM83.8225 12.7716H76.6057L80.2234 5.5963L83.8225 12.7716ZM89.181 18.328L81.6913 3.48422H78.7375L71.2458 18.328H73.8084L75.4511 15.0067H84.976L86.6198 18.328H89.181ZM103.324 6.97023L104.752 5.30889C102.692 3.84651 100.137 3.11515 97.0853 3.11515C94.7772 3.11515 93.011 3.51988 91.785 4.32541C90.559 5.13237 89.947 6.23245 89.947 7.62565C89.947 8.3374 90.0831 8.92434 90.3569 9.38898C90.6311 9.85433 91.0424 10.2298 91.5897 10.5179C92.1361 10.8043 92.8178 11.0197 93.6332 11.1623C94.4479 11.3067 95.4041 11.4194 96.4992 11.5014C97.5415 11.5699 98.4715 11.6348 99.2859 11.6958C100.101 11.7582 100.788 11.8641 101.35 12.0142C101.911 12.1636 102.338 12.3825 102.631 12.6703C102.924 12.9563 103.071 13.3671 103.071 13.9005C103.071 14.7071 102.634 15.3451 101.761 15.8169C100.885 16.289 99.6019 16.524 97.9068 16.524C96.6029 16.524 95.3704 16.3539 94.2094 16.0119C93.0498 15.6707 91.8952 15.1304 90.7492 14.3919L89.4572 16.1763C90.4872 17.0371 91.6962 17.67 93.0865 18.0726C94.4741 18.4756 96.0743 18.6778 97.8867 18.6778C100.416 18.6778 102.337 18.2467 103.647 17.3855C104.958 16.524 105.613 15.3073 105.613 13.7354C105.613 12.4931 105.188 11.5356 104.341 10.866C103.494 10.1963 102.184 9.74592 100.411 9.51307C99.6927 9.41786 99.0079 9.34833 98.3565 9.30768C97.7051 9.26595 97.0951 9.22923 96.5281 9.19464C95.961 9.16076 95.4378 9.11333 94.9629 9.052C94.4867 8.99067 94.054 8.88476 93.6631 8.73321C92.8419 8.43332 92.43 7.95478 92.43 7.29865C92.43 6.68282 92.8079 6.19537 93.5651 5.83307C94.321 5.46971 95.4351 5.28963 96.9094 5.28963C98.0313 5.28963 99.1154 5.42692 100.166 5.69864C101.216 5.97214 102.269 6.3947 103.324 6.97023ZM122.45 18.328V16.0936H110.225L121.922 5.71968V3.48422H107.233V5.71968H118.752L107.057 16.0936V18.328H122.45ZM138.976 18.328V16.0936H126.498V11.7478H134.791V9.51236H126.498V5.72003H138.429V3.48422H124.151V18.328H138.976ZM156.692 18.328V3.48422H154.345V15.6628L143.53 3.48422H140.615V18.328H142.963V6.14972L153.798 18.328H156.692ZM174.087 5.72003V3.48422H158.206V5.71968H164.974V18.328H167.321V5.72003H174.087ZM186.418 10.4352H177.948V5.72003H186.202C188.159 5.72003 189.137 6.53306 189.137 8.1591C189.137 8.89795 188.905 9.46101 188.443 9.85076C187.98 10.2391 187.304 10.4352 186.418 10.4352ZM191.659 18.328L187.865 12.5462C188.386 12.4517 188.871 12.2938 189.322 12.0752C189.772 11.8562 190.163 11.5667 190.496 11.2033C190.827 10.8421 191.085 10.4074 191.268 9.90211C191.45 9.39575 191.542 8.81416 191.542 8.1591C191.542 6.71064 191.121 5.56955 190.279 4.73513C189.438 3.90214 188.268 3.48458 186.77 3.48458H175.602V18.3283H177.948V12.67H185.106L188.94 18.328H191.659ZM209.355 13.5308V3.48422H207.009V12.9509C207.009 14.1149 206.533 15.0038 205.582 15.6197C204.631 16.2362 203.221 16.5439 201.357 16.5439C199.479 16.5439 198.062 16.2362 197.103 15.6197C196.143 15.0035 195.665 14.1145 195.665 12.9509V3.48422H193.319V13.5308C193.319 14.2828 193.504 14.9803 193.876 15.6207C194.248 16.264 194.778 16.8171 195.47 17.2821C196.16 17.7474 197.006 18.1122 198.003 18.3793C199 18.6453 200.213 18.7783 201.453 18.7783C202.691 18.7783 203.706 18.6489 204.691 18.3886C205.677 18.1308 206.514 17.7642 207.205 17.2921C207.897 16.8221 208.426 16.2676 208.799 15.6321C209.17 14.9974 209.355 14.2964 209.355 13.5308ZM231.55 18.328V3.48422H228.636L221.811 12.4638L215.004 3.48422H212.089V18.328H214.437V6.19037H214.494L221.791 15.8682L229.145 6.19037H229.203V18.3283L231.55 18.328Z" fill="#2D2E83"/>
<path d="M52.3672 35.1237V20.1965H50.0074V32.4422L39.1326 20.1965H36.2017V35.1237H38.5604V22.8756L49.4573 35.1237H52.3672ZM69.8403 29.9453C69.5246 30.6425 69.079 31.2394 68.5017 31.7361C67.9248 32.2332 67.2271 32.6187 66.4069 32.894C65.5874 33.1707 64.6669 33.3076 63.645 33.3076C62.6211 33.3076 61.6975 33.1707 60.8719 32.894C60.0456 32.6187 59.3404 32.2328 58.7563 31.7361C58.1736 31.239 57.7246 30.6425 57.4099 29.9453C57.0956 29.2493 56.9378 28.4805 56.9378 27.6389C56.9378 26.8262 57.1021 26.0696 57.428 25.3731C57.7576 24.676 58.2161 24.0762 58.8067 23.5731C59.3959 23.0689 60.1017 22.6763 60.9199 22.3938C61.7397 22.1103 62.648 21.9695 63.6454 21.9695C64.5492 21.9695 65.3888 22.0943 66.1616 22.3411C66.9352 22.59 67.6108 22.9351 68.1884 23.3759C69.6032 24.4806 70.3118 25.9009 70.3118 27.6393C70.3118 28.4801 70.1543 29.2489 69.8403 29.9453ZM69.8787 21.7431C69.0923 21.1098 68.1612 20.6148 67.0859 20.2579C66.0106 19.9009 64.8632 19.7216 63.645 19.7216C62.4119 19.7216 61.2611 19.9009 60.1936 20.2579C59.1234 20.6148 58.19 21.1098 57.3902 21.7431C55.4488 23.2817 54.479 25.248 54.479 27.6389C54.479 30.0712 55.4362 32.0442 57.3507 33.5558C58.1369 34.1741 59.071 34.6623 60.1528 35.0196C61.2355 35.3758 62.3993 35.5548 63.645 35.5548C64.8901 35.5548 66.0467 35.3801 67.1158 35.0292C68.1847 34.678 69.1116 34.1941 69.8985 33.575C71.8133 32.0638 72.7702 30.0855 72.7702 27.6389C72.7699 25.248 71.8058 23.2817 69.8787 21.7431ZM85.7571 27.1853H77.2408V22.4434H85.5408C87.5073 22.4434 88.4908 23.2607 88.4908 24.8967C88.4908 25.6384 88.2571 26.2065 87.7927 26.598C87.3274 26.9885 86.6484 27.1853 85.7571 27.1853ZM91.0282 35.1237L87.2121 29.3081C87.7366 29.2118 88.2251 29.0546 88.6782 28.8345C89.1303 28.6142 89.5236 28.3232 89.8579 27.9577C90.192 27.5947 90.4502 27.1586 90.6349 26.6487C90.8186 26.1398 90.9101 25.5564 90.9101 24.8967C90.9101 23.4394 90.4866 22.2919 89.6413 21.4532C88.7963 20.6148 87.6193 20.1965 86.1119 20.1965H74.8817V35.1237H77.2415V29.4322H84.4403L88.2948 35.1237H91.0282ZM102.461 32.8754H95.165V22.4434H102.011C102.809 22.4434 103.534 22.5696 104.183 22.8246C104.832 23.0799 105.389 23.4394 105.854 23.9079C106.319 24.374 106.681 24.9352 106.936 25.5882C107.192 26.2407 107.32 26.9653 107.32 27.7623C107.32 28.5051 107.199 29.1876 106.957 29.8137C106.713 30.4385 106.379 30.9784 105.952 31.4323C105.526 31.8852 105.016 32.2403 104.419 32.4942C103.823 32.7481 103.17 32.8754 102.461 32.8754ZM101.812 20.1965H92.8049V35.1237H102.265C103.3 35.1237 104.271 34.9529 105.175 34.6174C106.081 34.2814 106.88 33.7886 107.576 33.1418C108.335 32.4422 108.91 31.6441 109.296 30.7509C109.683 29.858 109.877 28.883 109.877 27.8243C109.877 26.669 109.689 25.6228 109.317 24.6792C108.941 23.7389 108.408 22.9383 107.713 22.2787C107.018 21.6186 106.172 21.1069 105.175 20.7428C104.179 20.3777 103.058 20.1965 101.812 20.1965Z" fill="#2D2E83"/>
<path d="M1.31299 13.6363L1.413 13.3186L2.88392 13.8217L3.17137 12.8964L3.43399 12.9855L3.04823 14.2275L1.31299 13.6363Z" fill="#2D2E83"/>
<path d="M3.61443 10.7718L3.88623 10.2609L3.06641 10.1107L3.06334 10.1171L3.61443 10.7718ZM2.70752 10.1061L2.87421 9.79443L4.81253 10.0854L4.64584 10.3981L4.13966 10.3079L3.78384 10.9758L4.12197 11.3809L3.96107 11.6833L2.70752 10.1061Z" fill="#2D2E83"/>
<path d="M5.38734 8.21937C5.59961 8.41193 5.81936 8.32314 5.98639 8.12131C6.17077 7.89844 6.13573 7.72086 6.03095 7.62636C5.92448 7.52866 5.83229 7.55005 5.76289 7.58999C5.64145 7.65739 5.50674 7.76615 5.29039 7.9177C5.02131 8.10669 4.81959 8.04892 4.67603 7.91948C4.40015 7.66737 4.492 7.28226 4.70733 7.01981C4.95838 6.71991 5.31965 6.60581 5.60845 6.86718L5.39857 7.12001C5.21113 6.97095 5.04206 7.03621 4.89681 7.21022C4.79918 7.3279 4.71753 7.51332 4.85735 7.63956C4.95294 7.7287 5.06383 7.70802 5.17643 7.62957C5.20092 7.61246 5.54586 7.36356 5.62955 7.309C5.84113 7.16815 6.07109 7.21771 6.21465 7.34751C6.52353 7.62886 6.40855 8.02967 6.17009 8.31601C5.89726 8.64763 5.52477 8.77636 5.17745 8.47112L5.38734 8.21937Z" fill="#2D2E83"/>
<path d="M6.70068 5.02428L7.74434 4.18237L7.91205 4.41237L7.1225 5.04995L7.41539 5.44648L8.14541 4.85704L8.30563 5.07456L7.5746 5.66364L7.90014 6.10867L8.70296 5.46003L8.87271 5.68968L7.81544 6.54299L6.70068 5.02428Z" fill="#2D2E83"/>
<path d="M10.0907 3.71634L10.5632 3.476C10.7452 3.38222 10.8006 3.23744 10.7149 3.05701C10.6129 2.83806 10.4571 2.86302 10.3081 2.93933L9.841 3.17789L10.0907 3.71634ZM9.43823 3.07912L10.2234 2.6776C10.5836 2.49502 10.8476 2.57454 10.9843 2.86552C11.1371 3.19679 10.9564 3.39291 10.9129 3.43891L10.9156 3.44426C11.0221 3.40753 11.2024 3.4111 11.3293 3.68353C11.4228 3.88322 11.5354 4.05296 11.6303 4.09112L11.3214 4.24909C11.2422 4.19667 11.2 4.10181 11.1605 4.01802C11.0115 3.70136 10.886 3.59332 10.6207 3.72918L10.1968 3.9442L10.5265 4.65488L10.2393 4.80287L9.43823 3.07912Z" fill="#2D2E83"/>
<path d="M12.696 1.67388L13.9697 1.33191L14.0387 1.61219L13.0736 1.87214L13.1917 2.35675L14.0846 2.11819L14.1493 2.38349L13.2567 2.62276L13.39 3.16513L14.3711 2.90161L14.4398 3.18332L13.1488 3.52957L12.696 1.67388Z" fill="#2D2E83"/>
<path d="M16.2151 1.00562L15.896 1.03557L16.0572 2.94154L16.3743 2.91265L16.2151 1.00562Z" fill="#2D2E83"/>
<path d="M17.1296 15.4599V3.59302C9.44028 3.80091 3.24329 10.3108 3.00415 18.4079H14.3181L17.1296 15.4599Z" fill="#00A13A"/>
<path d="M22.007 20.2782L18.9138 23.5203V35.2228C26.7195 35.0139 32.9947 28.4173 33.0631 20.2782H22.007Z" fill="#00A13A"/>
<path d="M15.2317 33.4784H14.5486L12.8637 30.6261H12.8477V33.4784H12.2307V29.5994H12.9151L14.6061 32.4564H14.616V29.5994H15.2324V33.4784H15.2317ZM11.7473 33.4784H8.71493V32.9257L10.8723 30.185H8.8806V29.5991H11.6956V30.1136L9.53952 32.8915H11.7476L11.7473 33.4784ZM8.28393 33.4784H7.87096L7.77095 33.022C7.42431 33.436 7.10794 33.5711 6.65653 33.5711C5.54688 33.5711 4.88489 32.6454 4.88489 31.5393C4.88489 30.4306 5.54688 29.506 6.65653 29.506C7.46581 29.506 8.14378 29.9571 8.24311 30.8311H7.61038C7.54847 30.3219 7.12393 30.0598 6.65653 30.0598C5.86358 30.0598 5.53157 30.7933 5.53157 31.5393C5.53157 32.2846 5.86392 33.0173 6.65653 33.0173C7.32021 33.0273 7.68386 32.6101 7.69373 31.9526H6.70858V31.4366H8.28393V33.4784ZM14.2741 20.2782H2.98535V35.2296H17.1299V23.2703L14.2741 20.2782Z" fill="#2D2E83"/>
<path d="M2.66129 15.973L2.63952 16.1859L2.42044 16.213C2.59563 16.4141 2.6419 16.5839 2.61945 16.816C2.56026 17.3869 2.09217 17.6804 1.57272 17.6219C1.05294 17.5627 0.65459 17.1733 0.714461 16.601C0.756642 16.1848 1.00395 15.8586 1.41862 15.8553L1.38529 16.1795C1.1424 16.1848 0.997827 16.3909 0.973675 16.6306C0.931833 17.0392 1.25806 17.2489 1.60742 17.2867C1.95644 17.3266 2.31635 17.1947 2.35921 16.7864C2.39935 16.4459 2.22246 16.2373 1.91426 16.1977L1.86289 16.7033L1.61967 16.6766L1.70335 15.8657L2.66129 15.973Z" fill="#2D2E83"/>
<path d="M18.9019 3.58484V15.1993L21.9628 18.4079H33.047V3.58484H18.9019Z" fill="#2D2E83"/>
</svg>
