<svg width="24" height="24" viewBox="0 0 24 24" fill="none" xmlns="http://www.w3.org/2000/svg">
<path d="M13.525 17.0999C13.375 16.9499 13.3 16.7706 13.3 16.5619C13.3 16.3539 13.375 16.1749 13.525 16.0249L16.825 12.7499H5.05C4.83334 12.7499 4.65434 12.6789 4.513 12.5369C4.371 12.3956 4.3 12.2166 4.3 11.9999C4.3 11.7832 4.371 11.6039 4.513 11.4619C4.65434 11.3206 4.83334 11.2499 5.05 11.2499H16.825L13.5 7.9499C13.3667 7.7999 13.3 7.6249 13.3 7.4249C13.3 7.2249 13.375 7.0499 13.525 6.8999C13.675 6.73324 13.85 6.6499 14.05 6.6499C14.25 6.6499 14.4333 6.73324 14.6 6.8999L19.075 11.3749C19.1583 11.4582 19.221 11.5539 19.263 11.6619C19.3043 11.7706 19.325 11.8832 19.325 11.9999C19.325 12.1166 19.3043 12.2289 19.263 12.3369C19.221 12.4456 19.1583 12.5416 19.075 12.6249L14.575 17.1249C14.425 17.2749 14.25 17.3499 14.05 17.3499C13.85 17.3499 13.675 17.2666 13.525 17.0999Z" fill="#1C1B1F"/>
</svg>
